<svg width="2160" height="1798" viewBox="0 0 2160 1798" fill="none" xmlns="http://www.w3.org/2000/svg">
<path d="M139.408 1499.06H93.2666" stroke="#2E4555" stroke-width="1.1133" stroke-miterlimit="10"/>
<path d="M2008.41 1499.06H212.391" stroke="#2E4555" stroke-width="1.1133" stroke-miterlimit="10"/>
<path d="M1332.66 1688.22C1417.03 1688.22 1485.41 1669.78 1485.41 1647.02C1485.41 1624.26 1417.03 1605.81 1332.66 1605.81C1248.3 1605.81 1179.91 1624.26 1179.91 1647.02C1179.91 1669.78 1248.3 1688.22 1332.66 1688.22Z" fill="#2E4555"/>
<path d="M543.175 1740.62C384.192 1740.62 360.719 1718.09 358.407 1699.9C357.882 1696.12 358.262 1692.26 359.519 1688.64C360.775 1685.02 362.872 1681.74 365.645 1679.06C408.469 1634.99 655.263 1653.62 996.753 1679.4C1044.4 1683 1093.66 1686.69 1144.18 1690.39C1489.23 1715.53 1628.16 1712.28 1656.86 1678.27C1662.69 1671.32 1663.9 1662.64 1660.68 1650.91C1647.01 1601.87 1464.25 1601.62 1395.04 1605.47C1393.46 1605.55 1391.9 1605.02 1390.72 1603.98C1389.53 1602.95 1388.81 1601.5 1388.71 1599.95C1388.66 1599.18 1388.77 1598.41 1389.03 1597.68C1389.28 1596.96 1389.69 1596.29 1390.21 1595.72C1390.73 1595.14 1391.37 1594.68 1392.08 1594.35C1392.79 1594.02 1393.55 1593.83 1394.34 1593.79C1420.83 1592.26 1653.55 1580.78 1672.19 1648C1676.47 1663.48 1674.51 1675.85 1666.06 1685.91C1633.84 1724.25 1501.95 1728.34 1143.32 1702.22C1092.76 1698.52 1043.5 1694.83 995.848 1691.23C670.342 1666.59 413.194 1647.22 374.29 1687.29C372.752 1688.72 371.585 1690.49 370.885 1692.45C370.186 1694.42 369.975 1696.51 370.269 1698.57C371.727 1710.21 400.427 1736.23 631.639 1727.16C760.967 1722.23 890.898 1708.28 892.205 1708.13C893.718 1708.08 895.199 1708.58 896.347 1709.55C897.495 1710.52 898.226 1711.88 898.392 1713.35C898.558 1714.83 898.146 1716.31 897.24 1717.5C896.335 1718.69 895.002 1719.5 893.512 1719.77C892.205 1719.77 761.872 1733.76 632.142 1738.84C598.767 1740.02 569.212 1740.62 543.175 1740.62Z" fill="white" stroke="#2E4555" stroke-width="1.1133" stroke-miterlimit="10"/>
<path d="M1275.87 1683.2C1375.27 1683.2 1455.86 1604.17 1455.86 1506.7C1455.86 1409.22 1375.27 1330.2 1275.87 1330.2C1176.46 1330.2 1095.87 1409.22 1095.87 1506.7C1095.87 1604.17 1176.46 1683.2 1275.87 1683.2Z" fill="white"/>
<mask id="mask0_1044_152" style="mask-type:luminance" maskUnits="userSpaceOnUse" x="1095" y="1330" width="361" height="354">
<path d="M1275.87 1683.2C1375.27 1683.2 1455.86 1604.17 1455.86 1506.7C1455.86 1409.22 1375.27 1330.2 1275.87 1330.2C1176.46 1330.2 1095.87 1409.22 1095.87 1506.7C1095.87 1604.17 1176.46 1683.2 1275.87 1683.2Z" fill="white"/>
</mask>
<g mask="url(#mask0_1044_152)">
<path d="M1275.87 1683.2C1308.62 1683.22 1340.76 1674.47 1368.82 1657.9C1396.88 1641.33 1419.79 1617.56 1435.09 1589.16C1450.39 1560.76 1457.5 1528.8 1455.64 1496.73C1453.78 1464.67 1443.03 1433.7 1424.55 1407.19C1422.59 1484.07 1379.31 1597.58 1154.23 1636.62C1187.36 1666.59 1230.79 1683.22 1275.87 1683.2Z" fill="#E6641B"/>
<path opacity="0.3" d="M1275.87 1683.2C1308.62 1683.22 1340.76 1674.47 1368.82 1657.9C1396.88 1641.33 1419.79 1617.56 1435.09 1589.16C1450.39 1560.76 1457.5 1528.8 1455.64 1496.73C1453.78 1464.67 1443.03 1433.7 1424.55 1407.19C1422.59 1484.07 1379.31 1597.58 1154.23 1636.62C1187.36 1666.59 1230.79 1683.22 1275.87 1683.2Z" fill="white"/>
<path d="M1364.43 1575.9C1332.33 1545.28 1293.36 1522.47 1250.63 1509.31M1364.43 1575.9H1373.98C1395.17 1555.3 1413.41 1531.99 1428.22 1506.6C1343.92 1419.26 1261.94 1428.18 1261.94 1428.18C1261.94 1428.18 1344.17 1419.26 1428.47 1506.7C1433.09 1498.56 1436.96 1490.93 1440.13 1483.88C1405.04 1435.67 1344.63 1402.8 1312.21 1397.87L1304.67 1396.1M1364.43 1575.9C1290.39 1574.86 1234.1 1563.62 1192.03 1548.59C1194.74 1437.1 1235.3 1362.83 1256.52 1331.38C1263.27 1330.61 1270.07 1330.22 1276.87 1330.2C1283.05 1330.2 1289.09 1330.54 1295.12 1331.09M1304.67 1396.1C1293.05 1394.03 1281.16 1393.86 1269.48 1395.6M1304.67 1396.1L1326.13 1336.95C1315.99 1334.11 1305.61 1332.15 1295.12 1331.09M1295.12 1331.09C1281.19 1353.12 1245.36 1423.5 1245.36 1563.13M1405.09 1539.97C1333.42 1471.46 1254.3 1467.86 1254.3 1467.86" stroke="#2E4555" stroke-width="1.1133" stroke-linecap="round" stroke-linejoin="round"/>
<path d="M1191.83 1548.89C1194.54 1437.4 1235.1 1363.12 1256.31 1331.68C1239.72 1333.5 1223.46 1337.58 1208.01 1343.8C1169.92 1398.6 1148.4 1462.85 1145.94 1529.12C1160.7 1536.85 1176.04 1543.46 1191.83 1548.89Z" stroke="#2E4555" stroke-width="1.1133" stroke-linecap="round" stroke-linejoin="round"/>
<path d="M1208.01 1343.66C1176.93 1356.22 1150.05 1377.06 1130.4 1403.81C1110.75 1430.57 1099.13 1462.17 1096.83 1495.07C1111.63 1508.41 1128.14 1519.81 1145.94 1528.98C1148.4 1462.7 1169.92 1398.46 1208.01 1343.66Z" stroke="#2E4555" stroke-width="1.1133" stroke-linecap="round" stroke-linejoin="round"/>
<path d="M1439.88 1483.88C1443.79 1475.39 1447.15 1466.66 1449.93 1457.76C1442.42 1432.62 1429.32 1409.42 1411.58 1389.84L1397.66 1435.38L1411.33 1389.84C1400.23 1377.62 1387.45 1366.98 1373.38 1358.19L1358.05 1414.43L1373.48 1358.44C1358.76 1349.21 1342.74 1342.15 1325.93 1337.49L1304.47 1396.64C1337.34 1401.27 1388.16 1420.25 1439.88 1483.88Z" stroke="#2E4555" stroke-width="1.1133" stroke-linecap="round" stroke-linejoin="round"/>
<path d="M1285.82 1642.98C1306.76 1630.56 1326.74 1616.64 1345.58 1601.33C1355.89 1592.85 1374.79 1576.04 1375.39 1576.04C1374.79 1576.04 1410.88 1536.12 1422.84 1515.27C1422.84 1515.57 1428.17 1506.99 1427.86 1506.7C1427.56 1506.4 1432.19 1499.25 1431.89 1498.96C1434.81 1494.13 1437.37 1489.09 1439.53 1483.88C1443.44 1475.39 1446.8 1466.66 1449.58 1457.75C1454.38 1473.86 1456.82 1490.56 1456.82 1507.34C1456.82 1510.1 1456.82 1512.46 1456.82 1515.03C1380.82 1619.66 1322.26 1664.52 1285.42 1684.18C1282.45 1684.18 1279.44 1684.18 1276.37 1684.18C1257.94 1684.18 1239.62 1681.42 1222.04 1676C1243.93 1666.21 1265.23 1655.18 1285.82 1642.98ZM1285.82 1642.98H1287.13" stroke="#2E4555" stroke-width="1.1133" stroke-linecap="round" stroke-linejoin="round"/>
<path d="M1456.82 1515.03C1380.82 1619.66 1322.26 1664.52 1285.72 1683.74C1330.53 1681.53 1372.89 1663.01 1404.53 1631.82C1436.17 1600.62 1454.81 1558.98 1456.82 1515.03Z" stroke="#2E4555" stroke-width="1.1133" stroke-linecap="round" stroke-linejoin="round"/>
<path d="M1135.73 1617.54C1158.03 1645.04 1188.19 1665.39 1222.34 1676C1244.23 1666.21 1265.53 1655.18 1286.12 1642.98C1243.2 1650.76 1176.04 1631.44 1135.73 1617.54Z" stroke="#2E4555" stroke-width="1.1133" stroke-linecap="round" stroke-linejoin="round"/>
<path d="M1286.12 1642.98C1307.06 1630.56 1327.04 1616.64 1345.88 1601.33C1216.25 1614.34 1136.28 1574.96 1102.31 1552.58C1108.72 1576.28 1120.1 1598.41 1135.73 1617.54C1176.04 1631.44 1243.2 1650.76 1286.12 1642.98Z" stroke="#2E4555" stroke-width="1.1133" stroke-linecap="round" stroke-linejoin="round"/>
<path d="M1364.43 1576H1373.98C1365.49 1584.37 1356.19 1592.85 1345.88 1601.33C1216.25 1614.34 1136.28 1574.96 1102.31 1552.68C1098.34 1537.92 1096.33 1522.71 1096.33 1507.44C1096.33 1503.35 1096.53 1499.35 1096.83 1495.31C1107.79 1505.42 1130.05 1527.99 1191.83 1548.99C1234.1 1563.72 1290.39 1574.96 1364.43 1576ZM1364.43 1576C1365.13 1576.64 1365.84 1577.28 1366.49 1577.97" stroke="#2E4555" stroke-width="1.1133" stroke-linecap="round" stroke-linejoin="round"/>
</g>
<path d="M1275.87 1683.2C1375.27 1683.2 1455.86 1604.17 1455.86 1506.7C1455.86 1409.22 1375.27 1330.2 1275.87 1330.2C1176.46 1330.2 1095.87 1409.22 1095.87 1506.7C1095.87 1604.17 1176.46 1683.2 1275.87 1683.2Z" stroke="#2E4555" stroke-width="1.1133" stroke-linecap="round" stroke-linejoin="round"/>
<path d="M1607.4 1205.06C1607.4 1205.06 1595.09 1165.87 1559.2 1151.78C1534.07 1141.92 1505.57 1144.58 1479.68 1148.97C1431.53 1157.2 1389.51 1175.98 1343.97 1192C1343.97 1192 1363.47 1184.95 1443.44 1223.2C1472.9 1237.24 1506.57 1248.18 1540.25 1247.45C1567.24 1246.85 1608.76 1239.26 1607.4 1205.06Z" fill="#E6641B"/>
<path d="M1611.73 1089.87C1611.73 1089.87 1611.73 1048.82 1581.57 1025.21C1560.56 1008.75 1532.31 1003.08 1506.17 999.974C1457.62 994.207 1411.88 1000.27 1363.42 1002.68C1363.42 1002.68 1384.18 1001.5 1449.48 1060.75C1473.55 1082.53 1502.6 1102.54 1534.92 1111.36C1560.96 1118.46 1602.88 1123 1611.73 1089.87Z" fill="#E6641B"/>
<path d="M1694.21 1242.22C1694.21 1242.22 1661.59 1216.54 1661.49 1178.64C1661.49 1152.27 1674.41 1127.09 1688.13 1105.15C1713.66 1064.24 1746.94 1032.9 1779 997.164C1779 997.164 1765.13 1012.34 1771.87 1099.34C1774.38 1131.37 1772.27 1166.12 1759.15 1196.53C1748.85 1220.98 1726.38 1256.02 1694.21 1242.22Z" fill="#E6641B"/>
<path d="M1809.81 1305.21C1809.81 1305.21 1805.19 1264.45 1832.43 1237.54C1851.33 1218.86 1878.73 1209.99 1904.21 1203.97C1951.76 1192.74 1997.9 1193.57 2046.3 1190.47C2046.3 1190.47 2025.6 1191.6 1967.69 1257.85C1946.38 1282.49 1919.89 1305.41 1888.68 1317.88C1863.8 1327.88 1822.68 1337.1 1809.81 1305.21Z" fill="#E6641B"/>
<path d="M1802.43 1159.86C1802.43 1159.86 1760.96 1154.29 1741.05 1121.81C1727.18 1099.24 1725.12 1071.05 1725.37 1045.32C1725.87 997.41 1738.04 953.693 1746.83 906.919C1746.83 906.919 1742.86 926.93 1794.23 998.15C1813.13 1024.42 1829.42 1055.27 1834.44 1088C1838.01 1114.27 1837.06 1155.62 1802.43 1159.86Z" fill="#E6641B"/>
<path d="M1921.75 1086.87C1921.75 1086.87 1951.56 1115.65 1989.96 1111.51C2016.65 1108.5 2040.67 1092.88 2061.28 1077.01C2099.68 1047.44 2127.58 1011.26 2160 975.922C2160 975.922 2146.28 991.152 2057.36 994.75C2024.64 996.08 1989.71 1002.14 1960.4 1018.51C1936.88 1031.42 1904.06 1057.39 1921.75 1086.87Z" fill="#E6641B"/>
<path d="M1887.22 1058.43C1887.22 1058.43 1928.84 1062.52 1955.98 1035.56C1974.88 1016.78 1983.63 989.87 1989.51 964.783C2000.46 918.107 1999.16 872.812 2001.77 825.349C2001.77 825.349 2000.87 845.655 1933.86 903.124C1909.24 924.268 1885.86 950.489 1873.55 981.195C1863.55 1005.89 1854.55 1046.3 1887.22 1058.43Z" fill="#E6641B"/>
<path d="M1738.59 1455.73L1666.71 1282.29L1583.83 1081.74" stroke="#2E4555" stroke-width="1.1133" stroke-linecap="round" stroke-linejoin="round"/>
<path d="M1755.18 1425.92L1827.01 1184.75L1904.41 1035.71" stroke="#2E4555" stroke-width="1.1133" stroke-linecap="round" stroke-linejoin="round"/>
<path d="M1782.77 1331.09L1854.65 1290.42" stroke="#2E4555" stroke-width="1.1133" stroke-linecap="round" stroke-linejoin="round"/>
<path d="M1827 1184.75L1791.07 1106.14" stroke="#2E4555" stroke-width="1.1133" stroke-linecap="round" stroke-linejoin="round"/>
<path d="M1871.99 1106.53L1959.65 1068.19" stroke="#2E4555" stroke-width="1.1133" stroke-linecap="round" stroke-linejoin="round"/>
<path d="M1680.54 1314.82L1710.95 1195.6" stroke="#2E4555" stroke-width="1.1133" stroke-linecap="round" stroke-linejoin="round"/>
<path d="M1640.23 1224.18L1570.01 1187.46" stroke="#2E4555" stroke-width="1.1133" stroke-linecap="round" stroke-linejoin="round"/>
<path d="M1775.43 1542.43H1715.52C1705.73 1542.43 1696.24 1539.07 1688.7 1532.94C1681.16 1526.82 1676.03 1518.3 1674.2 1508.87L1652.89 1398.81H1838.06L1816.8 1508.87C1814.97 1518.31 1809.83 1526.82 1802.28 1532.95C1794.73 1539.08 1785.24 1542.43 1775.43 1542.43Z" fill="#2E4555" stroke="#2E4555" stroke-width="1.1133" stroke-linecap="round" stroke-linejoin="round"/>
<path d="M89.0947 871.481C89.0947 857.828 95.5285 847.773 110.004 847.773C124.48 847.773 131.165 857.631 131.165 871.481V919.388C131.165 933.041 124.732 943.095 110.004 943.095C95.2771 943.095 89.0947 933.238 89.0947 919.388V871.481ZM95.3777 919.782C95.3777 929.985 99.4993 937.476 110.004 937.476C120.509 937.476 125.083 929.985 125.083 919.782V871.086C125.083 860.884 120.861 853.392 110.004 853.392C99.1474 853.392 95.3777 860.884 95.3777 871.086V919.782Z" fill="#2E4555"/>
<path d="M141.067 871.481C141.067 857.828 147.501 847.773 161.977 847.773C176.453 847.773 183.138 857.631 183.138 871.481V919.388C183.138 933.041 176.704 943.095 161.977 943.095C147.25 943.095 141.067 933.238 141.067 919.388V871.481ZM147.35 919.782C147.35 929.985 151.472 937.476 161.977 937.476C172.482 937.476 177.056 929.985 177.056 919.782V871.086C177.056 860.884 172.834 853.392 161.977 853.392C151.12 853.392 147.35 860.884 147.35 871.086V919.782Z" fill="#2E4555"/>
<path d="M213.346 848.562C228.123 848.562 233.853 857.681 233.853 871.333V881.536C233.853 896.322 226.867 903.715 211.737 903.715H199.825V942.307H193.542V848.661L213.346 848.562ZM211.737 898.096C222.795 898.096 227.57 893.168 227.57 881.93V870.939C227.57 860.786 224.002 854.181 213.346 854.181H199.825V898.096H211.737Z" fill="#2E4555"/>
<path d="M283.565 871.185V873.206H277.533V870.791C277.533 860.934 273.713 853.393 263.359 853.393C253.005 853.393 249.134 860.638 249.134 870.495C249.134 893.217 283.665 893.611 283.665 919.487C283.665 932.992 277.684 942.898 263.057 942.898C248.431 942.898 242.449 933.041 242.449 919.487V914.558H248.481V919.783C248.481 929.64 252.401 937.033 262.906 937.033C273.412 937.033 277.382 929.788 277.382 919.783C277.382 897.258 242.851 896.864 242.851 870.791C242.851 856.695 249.134 847.626 262.957 847.478C276.779 847.33 283.565 857.681 283.565 871.185Z" fill="#2E4555"/>
<path d="M299.246 930.527V942.307H293.114V930.527H299.246Z" fill="#2E4555"/>
<path d="M316.336 930.527V942.307H310.153V930.527H316.336Z" fill="#2E4555"/>
<path d="M333.375 930.527V942.307H327.042V930.527H333.375Z" fill="#2E4555"/>
<path d="M109.301 984.94C124.078 984.94 129.808 994.009 129.808 1007.66V1017.86C129.808 1032.65 122.822 1040.09 107.692 1040.09H95.8303V1078.64H89.4971V984.99L109.301 984.94ZM107.692 1034.23C118.75 1034.23 123.525 1029.3 123.525 1018.01V1007.02C123.525 996.868 119.957 990.313 109.301 990.313H95.8303V1034.23H107.692Z" fill="#2E4555"/>
<path d="M146.596 1057.79L141.821 1078.54H136.041L156.9 984.892H166.199L187.511 1078.54H181.278L176.252 1057.79H146.596ZM147.551 1052.42H175.397L161.173 991.89L147.551 1052.42Z" fill="#2E4555"/>
<path d="M237.674 1007.81V1014.76H231.542V1007.42C231.542 997.558 227.621 989.721 217.066 989.721C206.511 989.721 202.64 997.361 202.64 1007.42V1056.16C202.64 1066.02 206.561 1073.66 217.066 1073.66C227.571 1073.66 231.542 1066.17 231.542 1056.16V1035.9H218.976V1030.28H237.674V1055.72C237.674 1069.27 231.642 1079.42 217.066 1079.42C202.49 1079.42 196.458 1069.27 196.458 1055.72V1007.81C196.458 994.305 202.439 984.103 217.066 984.103C231.693 984.103 237.674 994.305 237.674 1007.81Z" fill="#2E4555"/>
<path d="M280.548 1028.22V1033.83H254.462V1072.92H285.876V1078.54H248.179V984.892H285.876V990.51H254.462V1028.22H280.548Z" fill="#2E4555"/>
<path d="M323.021 1078.64H317.291V984.99H325.484L354.134 1063.85V984.99H359.864V1078.64H352.928L322.77 994.848L323.021 1078.64Z" fill="#2E4555"/>
<path d="M370.269 1007.81C370.269 994.157 376.652 984.103 391.128 984.103C405.604 984.103 412.289 993.96 412.289 1007.81V1055.72C412.289 1069.37 405.905 1079.42 391.128 1079.42C376.35 1079.42 370.269 1069.57 370.269 1055.72V1007.81ZM376.551 1056.16C376.551 1066.31 380.623 1073.81 391.128 1073.81C401.633 1073.81 406.207 1066.31 406.207 1056.16V1007.42C406.207 997.213 401.985 989.721 391.128 989.721C380.271 989.721 376.551 997.213 376.551 1007.42V1056.16Z" fill="#2E4555"/>
<path d="M438.778 1078.64V990.559H419.427V984.94H464.664V990.559H445.111V1078.64H438.778Z" fill="#2E4555"/>
<path d="M524.528 1030.58V1036.2H499.848V1078.64H493.565V984.99H529.856V990.609H499.698V1030.63L524.528 1030.58Z" fill="#2E4555"/>
<path d="M539.003 1007.81C539.003 994.157 545.437 984.103 559.913 984.103C574.388 984.103 581.073 993.96 581.073 1007.81V1055.72C581.073 1069.37 574.64 1079.42 559.913 1079.42C545.185 1079.42 539.003 1069.57 539.003 1055.72V1007.81ZM545.286 1056.16C545.286 1066.31 549.407 1073.81 559.913 1073.81C570.418 1073.81 574.992 1066.31 574.992 1056.16V1007.42C574.992 997.213 570.769 989.721 559.913 989.721C549.056 989.721 545.286 997.213 545.286 1007.42V1056.16Z" fill="#2E4555"/>
<path d="M597.46 1056.01C597.46 1065.87 601.28 1073.81 611.785 1073.81C622.29 1073.81 626.11 1066.07 626.11 1056.01V984.94H631.991V1055.72C631.991 1069.12 626.261 1079.42 611.885 1079.42C597.51 1079.42 591.378 1069.12 591.378 1055.72V984.94H597.661L597.46 1056.01Z" fill="#2E4555"/>
<path d="M648.728 1078.64H642.998V984.99H651.191L679.841 1063.85V984.99H685.571V1078.64H678.635L648.728 994.848V1078.64Z" fill="#2E4555"/>
<path d="M717.187 984.94C731.964 984.94 738.348 994.404 738.348 1008.2V1055.32C738.348 1069.12 731.964 1078.64 717.187 1078.64H696.177V984.99L717.187 984.94ZM717.187 1073.02C727.843 1073.02 732.266 1065.92 732.266 1055.62V1007.96C732.266 997.657 727.792 990.559 717.187 990.559H702.56V1073.02H717.187Z" fill="#2E4555"/>
<path d="M956.089 1310.53C844.202 1310.53 776.95 1213.19 753.074 1127.58L752.27 1124.57C750.998 1120.42 750.593 1116.06 751.079 1111.75C751.565 1107.44 752.932 1103.28 755.099 1099.5C757.266 1095.72 760.187 1092.41 763.689 1089.76C767.19 1087.12 771.2 1085.19 775.478 1084.1C779.756 1083.01 784.215 1082.78 788.587 1083.41C792.96 1084.05 797.156 1085.55 800.925 1087.81C804.694 1090.08 807.959 1093.06 810.524 1096.59C813.089 1100.12 814.902 1104.12 815.854 1108.36L816.457 1110.57C834.602 1175.73 884.011 1250.21 963.276 1245.92C978.182 1245.41 992.811 1241.84 1006.22 1235.43C1019.62 1229.02 1031.5 1219.91 1041.08 1208.71C1084.56 1159.81 1104.01 1053.5 1099.69 999.876C1099.28 996.434 1099.58 992.948 1100.58 989.624C1101.58 986.3 1103.25 983.207 1105.49 980.53C1107.73 977.852 1110.5 975.646 1113.63 974.042C1116.76 972.438 1120.19 971.47 1123.72 971.195C1127.24 970.92 1130.78 971.343 1134.13 972.441C1137.48 973.539 1140.57 975.287 1143.22 977.583C1145.87 979.878 1148.01 982.673 1149.53 985.8C1151.05 988.928 1151.91 992.324 1152.07 995.785C1157.09 1055.47 1150.46 1183.77 1090.59 1251.04C1075.27 1268.73 1056.38 1283.12 1035.11 1293.3C1013.84 1303.48 990.645 1309.23 966.996 1310.19C963.327 1310.44 959.657 1310.53 956.089 1310.53Z" fill="white"/>
<mask id="mask1_1044_152" style="mask-type:luminance" maskUnits="userSpaceOnUse" x="750" y="971" width="404" height="340">
<path d="M956.09 1310.53C844.203 1310.53 776.951 1213.19 753.075 1127.58L752.271 1124.57C750.999 1120.42 750.594 1116.06 751.08 1111.75C751.566 1107.44 752.933 1103.28 755.1 1099.5C757.267 1095.72 760.188 1092.41 763.69 1089.76C767.191 1087.12 771.201 1085.19 775.479 1084.1C779.757 1083.01 784.216 1082.77 788.588 1083.41C792.961 1084.05 797.157 1085.55 800.926 1087.81C804.695 1090.07 807.96 1093.06 810.525 1096.59C813.09 1100.12 814.903 1104.12 815.855 1108.36L816.458 1110.57C834.603 1175.73 884.012 1250.21 963.277 1245.92C978.182 1245.41 992.812 1241.84 1006.22 1235.42C1019.62 1229.01 1031.5 1219.91 1041.09 1208.71C1084.56 1159.81 1104.02 1053.5 1099.69 999.875C1099.28 996.433 1099.59 992.947 1100.58 989.623C1101.58 986.299 1103.25 983.206 1105.49 980.529C1107.73 977.851 1110.5 975.645 1113.63 974.041C1116.76 972.437 1120.19 971.469 1123.72 971.194C1127.24 970.919 1130.78 971.342 1134.13 972.44C1137.48 973.538 1140.57 975.286 1143.22 977.582C1145.87 979.877 1148.01 982.672 1149.53 985.799C1151.05 988.927 1151.92 992.323 1152.07 995.784C1157.09 1055.47 1150.46 1183.77 1090.59 1251.04C1075.27 1268.73 1056.38 1283.12 1035.11 1293.3C1013.84 1303.48 990.646 1309.23 966.997 1310.19C963.328 1310.43 959.658 1310.53 956.09 1310.53Z" fill="white"/>
</mask>
<g mask="url(#mask1_1044_152)">
<path d="M1123.77 972.126C1116.82 972.679 1110.39 975.912 1105.87 981.115C1101.36 986.318 1099.14 993.065 1099.69 999.875C1101.8 1026.05 1098.23 1064.74 1088.99 1103.38C1102.19 1102.83 1115.4 1104.5 1128.04 1108.31C1125.05 1145.39 1111.77 1180.96 1089.64 1211.17C1040.83 1277.66 967.65 1298.9 910.701 1290.92C885.217 1287.37 856.014 1274.26 831.436 1260.8C864.785 1292.69 909.506 1310.57 956.089 1310.63C959.658 1310.63 963.327 1310.63 966.996 1310.34C990.646 1309.38 1013.84 1303.63 1035.11 1293.45C1056.38 1283.27 1075.27 1268.88 1090.59 1251.19C1150.46 1183.91 1156.89 1055.62 1152.07 995.932C1151.82 992.541 1150.89 989.231 1149.33 986.195C1147.77 983.159 1145.61 980.456 1142.98 978.242C1140.35 976.029 1137.3 974.348 1134 973.299C1130.7 972.249 1127.22 971.85 1123.77 972.126Z" fill="#E6641B"/>
<path opacity="0.5" d="M1123.77 972.126C1116.82 972.679 1110.39 975.912 1105.87 981.115C1101.36 986.318 1099.14 993.065 1099.69 999.875C1101.8 1026.05 1098.23 1064.74 1088.99 1103.38C1102.19 1102.83 1115.4 1104.5 1128.04 1108.31C1125.05 1145.39 1111.77 1180.96 1089.64 1211.17C1040.83 1277.66 967.65 1298.9 910.701 1290.92C885.217 1287.37 856.014 1274.26 831.436 1260.8C864.785 1292.69 909.506 1310.57 956.089 1310.63C959.658 1310.63 963.327 1310.63 966.996 1310.34C990.646 1309.38 1013.84 1303.63 1035.11 1293.45C1056.38 1283.27 1075.27 1268.88 1090.59 1251.19C1150.46 1183.91 1156.89 1055.62 1152.07 995.932C1151.82 992.541 1150.89 989.231 1149.33 986.195C1147.77 983.159 1145.61 980.456 1142.98 978.242C1140.35 976.029 1137.3 974.348 1134 973.299C1130.7 972.249 1127.22 971.85 1123.77 972.126Z" fill="white"/>
</g>
<path d="M956.089 1310.53C844.202 1310.53 776.95 1213.19 753.074 1127.58L752.27 1124.57C750.998 1120.42 750.593 1116.06 751.079 1111.75C751.565 1107.44 752.932 1103.28 755.099 1099.5C757.266 1095.72 760.187 1092.41 763.689 1089.76C767.19 1087.12 771.2 1085.19 775.478 1084.1C779.756 1083.01 784.215 1082.78 788.587 1083.41C792.96 1084.05 797.156 1085.55 800.925 1087.81C804.694 1090.08 807.959 1093.06 810.524 1096.59C813.089 1100.12 814.902 1104.12 815.854 1108.36L816.457 1110.57C834.602 1175.73 884.011 1250.21 963.276 1245.92C978.182 1245.41 992.811 1241.84 1006.22 1235.43C1019.62 1229.02 1031.5 1219.91 1041.08 1208.71C1084.56 1159.81 1104.01 1053.5 1099.69 999.876C1099.28 996.434 1099.58 992.948 1100.58 989.624C1101.58 986.3 1103.25 983.207 1105.49 980.53C1107.73 977.852 1110.5 975.646 1113.63 974.042C1116.76 972.438 1120.19 971.47 1123.72 971.195C1127.24 970.92 1130.78 971.343 1134.13 972.441C1137.48 973.539 1140.57 975.287 1143.22 977.583C1145.87 979.878 1148.01 982.673 1149.53 985.8C1151.05 988.928 1151.91 992.324 1152.07 995.785C1157.09 1055.47 1150.46 1183.77 1090.59 1251.04C1075.27 1268.73 1056.38 1283.12 1035.11 1293.3C1013.84 1303.48 990.645 1309.23 966.996 1310.19C963.327 1310.44 959.657 1310.53 956.089 1310.53Z" stroke="#2E4555" stroke-width="1.1133" stroke-linecap="round" stroke-linejoin="round"/>
<path d="M891.551 1243.85C894.215 1231.77 864.76 1250.65 840.081 1268.25C849.21 1275.81 859.037 1282.53 869.435 1288.31C878.231 1274.26 888.987 1255.48 891.551 1243.85Z" fill="#E6641B" stroke="#2E4555" stroke-width="1.1133" stroke-linecap="round" stroke-linejoin="round"/>
<path d="M956.089 1310.53C959.657 1310.53 963.327 1310.53 966.996 1310.24C977.675 1309.65 988.284 1308.18 998.712 1305.85C984.84 1288.11 965.739 1264.65 960.261 1262.87C953.978 1260.8 941.864 1291.02 935.129 1309.35C942.086 1310.15 949.085 1310.54 956.089 1310.53Z" fill="#E6641B" stroke="#2E4555" stroke-width="1.1133" stroke-linecap="round" stroke-linejoin="round"/>
<path d="M816.457 1110.57L815.854 1108.36C814.902 1104.12 813.089 1100.12 810.524 1096.59C807.959 1093.06 804.694 1090.08 800.925 1087.81C797.156 1085.55 792.96 1084.05 788.587 1083.41C784.215 1082.78 779.756 1083.01 775.478 1084.1C771.2 1085.19 767.19 1087.12 763.689 1089.76C760.187 1092.41 757.266 1095.72 755.099 1099.5C752.932 1103.28 751.565 1107.44 751.079 1111.75C750.593 1116.06 750.998 1120.42 752.27 1124.57L753.074 1127.58C761.456 1157.64 774.328 1186.33 791.275 1212.7L851.139 1184.75C835.441 1162.1 823.718 1137.02 816.457 1110.57Z" fill="#E6641B" stroke="#2E4555" stroke-width="1.1133" stroke-linecap="round" stroke-linejoin="round"/>
<path d="M1090.59 1251.04C1095.19 1245.82 1099.46 1240.32 1103.36 1234.58C1084.36 1228.22 1055.91 1219.45 1045.36 1220.39C1032.84 1221.52 1049.83 1260.95 1058.58 1279.53C1070.35 1271.3 1081.09 1261.74 1090.59 1251.04Z" fill="#E6641B" stroke="#2E4555" stroke-width="1.1133" stroke-linecap="round" stroke-linejoin="round"/>
<path d="M1091.65 1145.72C1089.64 1149.66 1114.22 1167.21 1130.8 1178.49C1136.07 1163.14 1140.3 1147.47 1143.47 1131.57C1123.37 1135.51 1093.61 1141.87 1091.65 1145.72Z" fill="#E6641B" stroke="#2E4555" stroke-width="1.1133" stroke-linecap="round" stroke-linejoin="round"/>
<path d="M1151.61 1072.82C1152.72 1058.77 1153.27 1045.37 1153.32 1033.05C1136.03 1042.36 1115.52 1055.27 1115.52 1063.75C1115.52 1072.23 1134.73 1073.26 1151.61 1072.82Z" fill="#E6641B" stroke="#2E4555" stroke-width="1.1133" stroke-linecap="round" stroke-linejoin="round"/>
<path d="M880.996 691.484C880.996 691.484 832.19 830.08 858.478 937.921C866.264 969.478 881.379 998.846 902.644 1023.73C923.908 1048.62 950.748 1068.35 981.07 1081.4C981.07 1081.4 909.746 1106.04 925.78 1143.94C941.815 1181.84 1003.29 1157.45 1023.34 1145.17C1043.4 1132.9 1068.58 1096.13 1072.1 1071.59C1074.33 1059.05 1075.18 1046.31 1074.61 1033.59C1074.61 1033.59 1155.89 1025.01 1210.93 980.85C1210.93 980.85 1259.73 1018.85 1294.76 1011.51C1329.8 1004.16 1379.81 942.8 1374.78 887.648C1369.76 832.495 1337.34 832.544 1317.53 840.923C1307.25 844.735 1297.88 850.572 1289.99 858.075C1289.99 858.075 1318.74 823.574 1289.99 775.913C1281.5 761.933 1269.88 750.03 1256.01 741.106C1242.14 732.183 1226.38 726.472 1209.92 724.408C1209.92 724.408 1194.84 645.893 1149.91 616.469C1104.97 587.044 944.78 556.584 880.996 691.484Z" fill="white"/>
<mask id="mask2_1044_152" style="mask-type:luminance" maskUnits="userSpaceOnUse" x="850" y="591" width="526" height="574">
<path d="M880.995 691.484C880.995 691.484 832.189 830.08 858.477 937.921C866.263 969.478 881.378 998.846 902.643 1023.73C923.907 1048.62 950.747 1068.35 981.069 1081.4C981.069 1081.4 909.745 1106.04 925.779 1143.94C941.814 1181.84 1003.29 1157.45 1023.34 1145.17C1043.4 1132.9 1068.58 1096.13 1072.1 1071.59C1074.33 1059.05 1075.18 1046.31 1074.61 1033.59C1074.61 1033.59 1155.89 1025.01 1210.92 980.85C1210.92 980.85 1259.73 1018.85 1294.76 1011.51C1329.8 1004.16 1379.81 942.8 1374.78 887.648C1369.76 832.495 1337.34 832.544 1317.53 840.923C1307.25 844.735 1297.88 850.572 1289.99 858.075C1289.99 858.075 1318.74 823.574 1289.99 775.913C1281.5 761.933 1269.88 750.03 1256.01 741.106C1242.14 732.183 1226.38 726.472 1209.92 724.408C1209.92 724.408 1194.84 645.893 1149.9 616.469C1104.97 587.044 944.779 556.584 880.995 691.484Z" fill="white"/>
</mask>
<g mask="url(#mask2_1044_152)">
<path d="M1252.59 739.145C1229.39 777.099 1197.28 809.073 1158.94 832.408C1120.59 855.743 1077.12 869.764 1032.14 873.305C932.615 881.881 876.823 862.659 851.188 849.302C854.299 795.678 864.435 742.669 881.347 691.583C945.131 556.683 1105.22 587.34 1150.26 616.764C1195.29 646.189 1210.27 724.704 1210.27 724.704C1225.26 726.548 1239.68 731.469 1252.59 739.145ZM1317.53 840.923C1307.25 844.735 1297.88 850.573 1289.99 858.075C1296.08 849.846 1300.09 840.32 1301.7 830.277C1234.1 863.3 1239.37 933.781 1230.98 933.781C1220.63 933.781 1215.5 898.343 1215.5 898.343C1215.5 898.343 1202.58 948.961 1125.02 984.448C1047.47 1019.94 959.758 992.039 959.758 992.039C959.758 992.039 977.852 1032.55 931.359 1027.48C918.311 1026.25 905.8 1021.77 895.018 1014.46C917.313 1043.61 946.924 1066.6 980.969 1081.2C980.969 1081.2 909.645 1105.84 925.679 1143.75C941.713 1181.65 1003.24 1157.25 1023.24 1144.98C1043.25 1132.7 1068.48 1095.94 1072 1071.39C1074.23 1058.85 1075.07 1046.11 1074.51 1033.39C1074.51 1033.39 1155.79 1024.81 1210.82 980.653C1210.82 980.653 1259.63 1018.65 1294.66 1011.31C1329.7 1003.97 1379.71 942.603 1374.68 887.451C1369.66 832.298 1337.34 832.545 1317.53 840.923Z" fill="#E6641B"/>
<path opacity="0.5" d="M1252.59 739.145C1229.39 777.099 1197.28 809.073 1158.94 832.408C1120.59 855.743 1077.12 869.764 1032.14 873.305C932.615 881.881 876.823 862.659 851.188 849.302C854.299 795.678 864.435 742.669 881.347 691.583C945.131 556.683 1105.22 587.34 1150.26 616.764C1195.29 646.189 1210.27 724.704 1210.27 724.704C1225.26 726.548 1239.68 731.469 1252.59 739.145ZM1317.53 840.923C1307.25 844.735 1297.88 850.573 1289.99 858.075C1296.08 849.846 1300.09 840.32 1301.7 830.277C1234.1 863.3 1239.37 933.781 1230.98 933.781C1220.63 933.781 1215.5 898.343 1215.5 898.343C1215.5 898.343 1202.58 948.961 1125.02 984.448C1047.47 1019.94 959.758 992.039 959.758 992.039C959.758 992.039 977.852 1032.55 931.359 1027.48C918.311 1026.25 905.8 1021.77 895.018 1014.46C917.313 1043.61 946.924 1066.6 980.969 1081.2C980.969 1081.2 909.645 1105.84 925.679 1143.75C941.713 1181.65 1003.24 1157.25 1023.24 1144.98C1043.25 1132.7 1068.48 1095.94 1072 1071.39C1074.23 1058.85 1075.07 1046.11 1074.51 1033.39C1074.51 1033.39 1155.79 1024.81 1210.82 980.653C1210.82 980.653 1259.63 1018.65 1294.66 1011.31C1329.7 1003.97 1379.71 942.603 1374.68 887.451C1369.66 832.298 1337.34 832.545 1317.53 840.923Z" fill="white"/>
<path d="M1074.86 1033.69C1047.89 1034.39 1021.1 1029.02 996.576 1017.99C972.048 1006.96 950.425 990.562 933.369 970.057" stroke="#2E4555" stroke-width="1.1133" stroke-linecap="round" stroke-linejoin="round"/>
</g>
<path d="M880.996 691.484C880.996 691.484 832.19 830.08 858.478 937.921C866.264 969.478 881.379 998.846 902.644 1023.73C923.908 1048.62 950.748 1068.35 981.07 1081.4C981.07 1081.4 909.746 1106.04 925.78 1143.94C941.815 1181.84 1003.29 1157.45 1023.34 1145.17C1043.4 1132.9 1068.58 1096.13 1072.1 1071.59C1074.33 1059.05 1075.18 1046.31 1074.61 1033.59C1074.61 1033.59 1155.89 1025.01 1210.93 980.85C1210.93 980.85 1259.73 1018.85 1294.76 1011.51C1329.8 1004.16 1379.81 942.8 1374.78 887.648C1369.76 832.495 1337.34 832.544 1317.53 840.923C1307.25 844.735 1297.88 850.572 1289.99 858.075C1289.99 858.075 1318.74 823.574 1289.99 775.913C1281.5 761.933 1269.88 750.03 1256.01 741.106C1242.14 732.183 1226.38 726.472 1209.92 724.408C1209.92 724.408 1194.84 645.893 1149.91 616.469C1104.97 587.044 944.78 556.584 880.996 691.484Z" stroke="#2E4555" stroke-width="1.1133" stroke-linecap="round" stroke-linejoin="round"/>
<path d="M1289.99 858.272C1289.99 858.272 1263.75 875.474 1251.24 928.211" stroke="#2E4555" stroke-width="1.1133" stroke-linecap="round" stroke-linejoin="round"/>
<path d="M1338.19 880.846C1335.13 889.816 1326.73 895.188 1319.49 892.773C1312.26 890.358 1308.94 881.141 1312 872.171C1315.07 863.201 1323.46 857.828 1330.7 860.243C1337.94 862.659 1341.31 871.875 1338.19 880.846Z" fill="white" stroke="#2E4555" stroke-width="1.1133" stroke-linecap="round" stroke-linejoin="round"/>
<path d="M1364.08 896.815C1361.01 905.786 1352.62 911.158 1345.38 908.743C1338.14 906.328 1334.77 897.111 1337.89 888.141C1341.01 879.17 1349.35 873.798 1356.59 876.213C1363.83 878.628 1367.19 887.845 1364.08 896.815Z" fill="white" stroke="#2E4555" stroke-width="1.1133" stroke-linecap="round" stroke-linejoin="round"/>
<path d="M1369.61 920.719C1368.6 922.369 1367.14 923.706 1365.4 924.574C1363.65 925.443 1361.69 925.808 1359.74 925.626C1357.79 925.445 1355.93 924.724 1354.38 923.549C1352.83 922.374 1351.65 920.791 1350.98 918.986C1350.31 917.18 1350.18 915.226 1350.6 913.349C1351.02 911.472 1351.97 909.751 1353.35 908.384C1354.72 907.017 1356.47 906.061 1358.38 905.628C1360.28 905.194 1362.28 905.3 1364.13 905.933C1366.8 907.242 1368.85 909.505 1369.87 912.255C1370.89 915.006 1370.8 918.035 1369.61 920.719Z" fill="white" stroke="#2E4555" stroke-width="1.1133" stroke-linecap="round" stroke-linejoin="round"/>
<path d="M1336.58 953.545C1327.54 969.564 1309.44 976.661 1296.12 969.416C1282.8 962.171 1279.38 943.392 1288.43 927.374C1297.48 911.355 1315.57 904.258 1328.89 911.503C1342.21 918.749 1345.63 937.527 1336.58 953.545Z" fill="white" stroke="#2E4555" stroke-width="1.1133" stroke-linecap="round" stroke-linejoin="round"/>
<path d="M981.069 1081.5C997.919 1089.19 1017.07 1090.5 1034.85 1085.19" stroke="#2E4555" stroke-width="1.1133" stroke-linecap="round" stroke-linejoin="round"/>
<path d="M926.031 1144.04C926.031 1144.04 931.058 1123.19 962.271 1108.5" stroke="#2E4555" stroke-width="1.1133" stroke-linecap="round" stroke-linejoin="round"/>
<path d="M957.295 1162.47C957.295 1162.47 969.811 1132.9 991.072 1119.54" stroke="#2E4555" stroke-width="1.1133" stroke-linecap="round" stroke-linejoin="round"/>
<path d="M464.06 823.18C458.743 819.019 454.504 813.685 451.692 807.611C448.879 801.538 447.571 794.898 447.875 788.235V671.375H140.463C132.954 671.651 125.473 670.331 118.532 667.507C111.592 664.682 105.356 660.42 100.253 655.011C90.1978 644.581 84.681 630.721 84.872 616.37C84.8313 604.708 88.3307 593.299 94.9247 583.594L389.368 129.854C411.484 96.3718 440.872 79.6305 477.53 79.6305C497.239 78.974 516.483 85.5864 531.463 98.1626C545.838 110.484 553.026 128.803 553.026 153.118V594.191H631.236C636.638 593.871 642.045 594.722 647.075 596.681C652.104 598.64 656.632 601.66 660.339 605.527C666.952 613.127 670.585 622.791 670.585 632.783C670.585 642.774 666.952 652.438 660.339 660.039C656.632 663.905 652.104 666.925 647.075 668.885C642.045 670.844 636.638 671.694 631.236 671.375H552.473V788.235C552.799 794.848 551.557 801.445 548.845 807.509C546.133 813.572 542.024 818.936 536.841 823.18C526.724 831.498 513.904 835.991 500.702 835.846C487.354 835.95 474.39 831.468 464.06 823.18ZM447.674 594.191V188.063L189.872 594.191H447.674Z" fill="#2E4555"/>
<path d="M890.646 825.546C860.516 812.652 833.835 793.101 812.687 768.422C791.446 742.346 774.86 712.933 763.63 681.429C750.903 647.396 741.954 612.116 736.94 576.201C731.709 537.098 729.19 497.693 729.401 458.256C729.401 198.446 819.875 68.541 1000.82 68.541C1181.77 68.541 1272.03 198.446 1271.59 458.256C1271.77 497.504 1269.34 536.722 1264.3 575.659C1259.45 611.58 1250.59 646.868 1237.87 680.887C1226.64 712.391 1210.05 741.804 1188.81 767.879C1167.63 792.592 1140.97 812.218 1110.85 825.25C1076.23 840.26 1038.67 847.662 1000.82 846.936C962.954 847.682 925.369 840.385 890.646 825.546ZM1054.3 750.974C1069.44 744.641 1083.19 735.484 1094.77 724.014C1106.49 711.772 1116.13 697.759 1123.32 682.514C1131.24 666.361 1137.65 649.534 1142.47 632.241C1147.53 613.398 1151.23 594.226 1153.52 574.87C1156.24 553.512 1158.05 533.945 1158.95 516.169C1159.86 498.393 1160.29 479.088 1160.26 458.256C1160.26 436.405 1159.82 416.231 1158.95 397.731C1158.08 379.232 1156.19 359.386 1153.27 338.192C1150.77 318.849 1146.99 299.686 1141.96 280.822C1137.21 263.701 1130.79 247.065 1122.81 231.14C1115.57 216.135 1105.92 202.372 1094.21 190.379C1082.7 179.139 1069.04 170.244 1054 164.208C1019.64 151.197 981.56 151.197 947.193 164.208C932.269 170.172 918.704 178.984 907.283 190.133C895.666 202.074 886.033 215.728 878.734 230.598C870.682 246.38 864.347 262.95 859.835 280.033C854.928 299.011 851.235 318.27 848.777 337.699C845.861 359.189 843.968 379.199 843.097 397.731C842.226 416.263 841.773 436.438 841.74 458.256C841.74 479.055 842.192 498.442 843.097 516.415C844.002 534.389 845.794 554.104 848.475 575.56C850.794 594.913 854.489 614.083 859.533 632.931C864.278 650.218 870.621 667.046 878.482 683.204C885.593 698.357 895.148 712.286 906.781 724.457C918.274 735.854 931.936 744.93 946.991 751.171C981.391 764.904 1019.9 764.904 1054.3 751.171V750.974Z" fill="#2E4555"/>
<path d="M1737.33 823.18C1732.02 819.02 1727.78 813.685 1724.97 807.612C1722.15 801.539 1720.85 794.899 1721.15 788.235V671.375H1413.74C1406.23 671.651 1398.75 670.332 1391.81 667.507C1384.87 664.683 1378.63 660.42 1373.53 655.012C1363.47 644.582 1357.96 630.722 1358.15 616.37C1358.11 604.709 1361.61 593.299 1368.2 583.594L1662.64 129.855C1684.56 96.3722 1713.86 79.6309 1750.55 79.6309C1770.36 78.8995 1789.73 85.5166 1804.79 98.163C1819.16 110.485 1826.35 128.803 1826.35 153.118V594.191H1904.56C1909.96 593.872 1915.37 594.722 1920.4 596.681C1925.43 598.64 1929.96 601.66 1933.66 605.527C1940.28 613.128 1943.91 622.792 1943.91 632.783C1943.91 642.774 1940.28 652.438 1933.66 660.039C1929.96 663.906 1925.43 666.926 1920.4 668.885C1915.37 670.844 1909.96 671.694 1904.56 671.375H1825.75V788.235C1826.07 794.849 1824.83 801.446 1822.12 807.509C1819.41 813.572 1815.3 818.936 1810.12 823.18C1800 831.498 1787.18 835.991 1773.98 835.847C1760.63 835.95 1747.66 831.469 1737.33 823.18ZM1721.15 594.191V188.063L1463.35 594.191H1721.15Z" fill="#2E4555"/>
<path d="M779.664 621.594C779.664 621.594 727.139 693.948 719.649 767.534C712.16 841.12 720.906 890.161 743.424 908.594C765.942 927.028 788.41 919.635 800.926 902.434C813.441 885.232 793.436 825.151 793.436 825.151C793.436 825.151 814.698 767.534 847.218 727.069C879.739 686.604 885.971 680.443 885.971 680.443C885.971 680.443 829.676 617.898 779.664 621.594Z" fill="white"/>
<mask id="mask3_1044_152" style="mask-type:luminance" maskUnits="userSpaceOnUse" x="717" y="621" width="169" height="299">
<path d="M779.664 621.594C779.664 621.594 727.139 693.948 719.649 767.534C712.16 841.12 720.906 890.161 743.424 908.594C765.942 927.028 788.41 919.635 800.926 902.434C813.441 885.232 793.436 825.151 793.436 825.151C793.436 825.151 814.698 767.534 847.218 727.069C879.739 686.604 885.971 680.443 885.971 680.443C885.971 680.443 829.676 617.898 779.664 621.594Z" fill="white"/>
</mask>
<g mask="url(#mask3_1044_152)">
<path d="M779.664 621.594C768.203 638.2 758.037 655.632 749.255 673.74C774.387 683.598 813.341 703.805 838.07 739.588C841.086 735.3 844.203 731.061 847.419 727.069C879.94 686.604 886.173 680.443 886.173 680.443C886.173 680.443 829.676 617.898 779.664 621.594Z" fill="#E6641B"/>
<path opacity="0.5" d="M779.664 621.594C768.203 638.2 758.037 655.632 749.255 673.74C774.387 683.598 813.341 703.805 838.07 739.588C841.086 735.3 844.203 731.061 847.419 727.069C879.94 686.604 886.173 680.443 886.173 680.443C886.173 680.443 829.676 617.898 779.664 621.594Z" fill="white"/>
</g>
<path d="M779.664 621.594C779.664 621.594 727.139 693.948 719.649 767.534C712.16 841.12 720.906 890.161 743.424 908.594C765.942 927.028 788.41 919.635 800.926 902.434C813.441 885.232 793.436 825.151 793.436 825.151C793.436 825.151 814.698 767.534 847.218 727.069C879.739 686.604 885.971 680.443 885.971 680.443C885.971 680.443 829.676 617.898 779.664 621.594Z" stroke="#2E4555" stroke-width="1.1133" stroke-linecap="round" stroke-linejoin="round"/>
<path d="M743.424 908.595C737.283 892.515 734.299 875.44 734.628 858.272" stroke="#2E4555" stroke-width="1.1133" stroke-linecap="round" stroke-linejoin="round"/>
<path d="M777.152 915.939C777.152 915.939 764.686 895.09 763.43 859.505" stroke="#2E4555" stroke-width="1.1133" stroke-linecap="round" stroke-linejoin="round"/>
<path d="M795.949 752.797C795.949 739.884 770.817 714.649 735.884 703.51C731.188 715.517 727.309 727.817 724.273 740.327C737.846 742.605 751.026 746.736 763.429 752.6C782.177 762.605 795.949 767.534 795.949 752.797Z" fill="#E6641B" stroke="#2E4555" stroke-width="1.1133" stroke-linecap="round" stroke-linejoin="round"/>
<path d="M776.598 625.981C768.496 638.093 761.047 650.613 754.281 663.489C764.859 666.232 775.005 670.377 784.439 675.811C823.192 697.842 830.682 700.455 818.216 668.418C810.677 648.309 792.683 634.656 776.598 625.981Z" fill="#E6641B" stroke="#2E4555" stroke-width="1.1133" stroke-linecap="round" stroke-linejoin="round"/>
<path d="M1191.07 585.861C1191.07 585.861 1250.58 652.794 1265.41 725.345C1280.24 797.896 1276.47 847.528 1255.86 867.982C1235.25 888.436 1212.18 883.311 1198.01 867.391C1183.83 851.471 1198.01 789.812 1198.01 789.812C1198.01 789.812 1171.07 734.463 1134.68 697.3C1098.28 660.137 1091.4 654.667 1091.4 654.667C1091.4 654.667 1140.91 586.995 1191.07 585.861Z" fill="white"/>
<mask id="mask4_1044_152" style="mask-type:luminance" maskUnits="userSpaceOnUse" x="1091" y="585" width="184" height="297">
<path d="M1191.07 585.86C1191.07 585.86 1250.58 652.793 1265.41 725.344C1280.24 797.895 1276.47 847.527 1255.86 867.981C1235.25 888.435 1212.18 883.31 1198.01 867.39C1183.83 851.47 1198.01 789.811 1198.01 789.811C1198.01 789.811 1171.07 734.462 1134.67 697.299C1098.28 660.136 1091.4 654.666 1091.4 654.666C1091.4 654.666 1140.91 586.994 1191.07 585.86Z" fill="white"/>
</mask>
<g mask="url(#mask4_1044_152)">
<path d="M1191.07 585.86C1140.81 586.994 1091.15 654.863 1091.15 654.863C1091.15 654.863 1097.98 660.383 1134.42 697.496C1141.24 704.534 1147.65 711.939 1153.63 719.676C1172.64 688.173 1199.82 662.158 1232.39 644.266C1220.4 623.639 1206.58 604.094 1191.07 585.86Z" fill="#E6641B"/>
<path opacity="0.5" d="M1191.07 585.86C1140.81 586.994 1091.15 654.863 1091.15 654.863C1091.15 654.863 1097.98 660.383 1134.42 697.496C1141.24 704.534 1147.65 711.939 1153.63 719.676C1172.64 688.173 1199.82 662.158 1232.39 644.266C1220.4 623.639 1206.58 604.094 1191.07 585.86Z" fill="white"/>
</g>
<path d="M1191.07 585.861C1191.07 585.861 1250.58 652.794 1265.41 725.345C1280.24 797.896 1276.47 847.528 1255.86 867.982C1235.25 888.436 1212.18 883.311 1198.01 867.391C1183.83 851.471 1198.01 789.812 1198.01 789.812C1198.01 789.812 1171.07 734.463 1134.68 697.3C1098.28 660.137 1091.4 654.667 1091.4 654.667C1091.4 654.667 1140.91 586.995 1191.07 585.861Z" stroke="#2E4555" stroke-width="1.1133" stroke-linecap="round" stroke-linejoin="round"/>
<path d="M1255.86 867.983C1260.37 851.411 1261.63 834.151 1259.58 817.118" stroke="#2E4555" stroke-width="1.1133" stroke-linecap="round" stroke-linejoin="round"/>
<path d="M1222.99 878.53C1222.99 878.53 1233.39 856.597 1231.08 821.061" stroke="#2E4555" stroke-width="1.1133" stroke-linecap="round" stroke-linejoin="round"/>
<path d="M1188.01 718C1186.75 705.136 1209.22 677.634 1242.89 663.39C1248.72 674.877 1253.76 686.732 1257.97 698.877C1244.72 702.5 1232.03 707.89 1220.27 714.895C1202.68 726.477 1189.51 732.491 1188.01 718Z" fill="#E6641B" stroke="#2E4555" stroke-width="1.1133" stroke-linecap="round" stroke-linejoin="round"/>
<path d="M1194.54 589.952C1203.78 601.137 1212.41 612.802 1220.37 624.897C1210.09 628.632 1200.36 633.723 1191.47 640.028C1155.13 665.756 1147.89 668.91 1157.14 635.987C1162.92 615.434 1179.41 600.105 1194.54 589.952Z" fill="#E6641B" stroke="#2E4555" stroke-width="1.1133" stroke-linecap="round" stroke-linejoin="round"/>
<path d="M774.738 559C774.738 559 759.257 610.209 765.088 631.058C770.918 651.906 797.96 632.98 825.052 655.701C852.144 678.423 877.225 719.43 979.813 727.02C1082.4 734.61 1144.33 680.345 1165.79 649.984C1187.25 619.623 1185.14 583.594 1221.88 581.721C1258.62 579.848 1227.71 509.614 1216.1 498.228C1216.1 498.228 1287.68 393.887 1287.68 367.321C1287.68 340.755 1219.97 346.423 1136.89 371.116C1136.89 371.116 1074.96 338.833 962.724 357.809C850.485 376.784 817.613 409.067 817.613 409.067C817.613 409.067 678.283 426.121 668.632 443.174C658.981 460.228 687.682 532.434 774.738 559Z" fill="white"/>
<mask id="mask5_1044_152" style="mask-type:luminance" maskUnits="userSpaceOnUse" x="666" y="349" width="622" height="379">
<path d="M774.738 559.001C774.738 559.001 759.257 610.21 765.088 631.059C770.918 651.907 797.96 632.981 825.052 655.702C852.144 678.424 877.225 719.431 979.813 727.021C1082.4 734.611 1144.33 680.346 1165.79 649.985C1187.25 619.624 1185.14 583.595 1221.88 581.722C1258.62 579.849 1227.71 509.615 1216.1 498.229C1216.1 498.229 1287.68 393.888 1287.68 367.322C1287.68 340.756 1219.97 346.424 1136.89 371.117C1136.89 371.117 1074.96 338.834 962.724 357.81C850.485 376.785 817.613 409.068 817.613 409.068C817.613 409.068 678.283 426.122 668.632 443.175C658.981 460.229 687.682 532.435 774.738 559.001Z" fill="white"/>
</mask>
<g mask="url(#mask5_1044_152)">
<path d="M1221.73 581.771C1258.52 579.849 1227.56 509.664 1215.95 498.278C1215.95 498.278 1229.57 478.563 1244.9 453.92C1203.33 432.627 1162.52 420.799 1151.66 432.775C1128.29 458.503 1141.01 507.791 1151.66 555.994C1162.32 604.197 1119.75 624.75 1089.99 666.447C1060.23 708.144 1017.76 662.257 1017.76 662.257C1002.68 722.733 939.099 683.106 939.099 683.106C890.243 668.32 807.359 620.609 824.348 587.242C841.337 553.874 845.609 522.626 815.853 495.567C786.097 468.509 667.425 445.984 667.425 445.984C661.192 466.537 691.3 533.864 774.788 559.345C774.788 559.345 759.307 610.555 765.137 631.403C770.968 652.252 798.01 633.326 825.102 656.047C852.194 678.769 877.275 719.776 979.863 727.366C1082.45 734.956 1144.38 680.691 1165.84 650.33C1187.3 619.969 1184.94 583.644 1221.73 581.771Z" fill="#E6641B"/>
<path opacity="0.5" d="M1221.73 581.771C1258.52 579.849 1227.56 509.664 1215.95 498.278C1215.95 498.278 1229.57 478.563 1244.9 453.92C1203.33 432.627 1162.52 420.799 1151.66 432.775C1128.29 458.503 1141.01 507.791 1151.66 555.994C1162.32 604.197 1119.75 624.75 1089.99 666.447C1060.23 708.144 1017.76 662.257 1017.76 662.257C1002.68 722.733 939.099 683.106 939.099 683.106C890.243 668.32 807.359 620.609 824.348 587.242C841.337 553.874 845.609 522.626 815.853 495.567C786.097 468.509 667.425 445.984 667.425 445.984C661.192 466.537 691.3 533.864 774.788 559.345C774.788 559.345 759.307 610.555 765.137 631.403C770.968 652.252 798.01 633.326 825.102 656.047C852.194 678.769 877.275 719.776 979.863 727.366C1082.45 734.956 1144.38 680.691 1165.84 650.33C1187.3 619.969 1184.94 583.644 1221.73 581.771Z" fill="white"/>
<path d="M1070.39 593.206C1071.85 605.232 1044.6 618.195 1009.67 622.187C974.736 626.179 945.181 619.673 943.724 607.401C942.266 595.128 969.509 582.461 1004.49 578.469C1039.48 574.477 1068.98 581.229 1070.39 593.206Z" fill="#E6641B"/>
<path opacity="0.5" d="M1070.39 593.206C1071.85 605.232 1044.6 618.195 1009.67 622.187C974.736 626.179 945.181 619.673 943.724 607.401C942.266 595.128 969.509 582.461 1004.49 578.469C1039.48 574.477 1068.98 581.229 1070.39 593.206Z" fill="white"/>
</g>
<path d="M774.738 559C774.738 559 759.257 610.209 765.088 631.058C770.918 651.906 797.96 632.98 825.052 655.701C852.144 678.423 877.225 719.43 979.813 727.02C1082.4 734.61 1144.33 680.345 1165.79 649.984C1187.25 619.623 1185.14 583.594 1221.88 581.721C1258.62 579.848 1227.71 509.614 1216.1 498.228C1216.1 498.228 1287.68 393.887 1287.68 367.321C1287.68 340.755 1219.97 346.423 1136.89 371.116C1136.89 371.116 1074.96 338.833 962.724 357.809C850.485 376.784 817.613 409.067 817.613 409.067C817.613 409.067 678.283 426.121 668.632 443.174C658.981 460.228 687.682 532.434 774.738 559Z" stroke="#2E4555" stroke-width="1.1133" stroke-miterlimit="10"/>
<path d="M1174.94 407.195C1124.67 440.316 1142.42 473.437 1164.88 491.821C1178.61 503.059 1200.72 501.679 1215.85 498.524C1215.85 498.524 1287.43 394.183 1287.43 367.617C1287.48 367.371 1224.95 373.827 1174.94 407.195Z" fill="#E6641B" stroke="#2E4555" stroke-width="1.1133" stroke-miterlimit="10"/>
<path d="M667.375 445.639C661.143 466.191 691.25 533.518 774.738 559C774.738 559 838.472 552.888 817.211 502.615C797.357 455.693 696.98 444.012 667.375 445.639Z" fill="#E6641B" stroke="#2E4555" stroke-width="1.1133" stroke-miterlimit="10"/>
<path d="M962.422 357.908C955.838 359.041 949.505 360.224 943.423 361.407C953.476 411.187 970.012 494.089 984.79 494.089C999.567 494.089 1010.88 403.203 1015.7 352.289C997.836 353.027 980.039 354.904 962.422 357.908Z" fill="#E6641B" stroke="#2E4555" stroke-width="1.1133" stroke-miterlimit="10"/>
<path d="M904.77 479.302C920.15 470.43 917.838 403.744 915.375 367.567C899.501 371.435 883.875 376.224 868.58 381.91C874.159 415.77 888.334 488.765 904.77 479.302Z" fill="#E6641B" stroke="#2E4555" stroke-width="1.1133" stroke-miterlimit="10"/>
<path d="M1053.6 448.645C1069.33 454.067 1078.18 398.619 1083.16 355.936C1067.27 353.396 1051.2 352.061 1035.1 351.943C1034.6 386.987 1036.56 442.78 1053.6 448.645Z" fill="#E6641B" stroke="#2E4555" stroke-width="1.1133" stroke-miterlimit="10"/>
<path d="M1032.54 640.57C1017.86 636.786 1002.26 638.674 988.961 645.844C988.378 646.174 987.882 646.634 987.512 647.185C987.142 647.737 986.909 648.366 986.831 649.022C986.753 649.678 986.832 650.343 987.062 650.963C987.293 651.584 987.668 652.143 988.157 652.596L1014.85 677.24C1015.35 677.699 1015.95 678.036 1016.61 678.221C1017.27 678.406 1017.97 678.435 1018.64 678.305C1019.31 678.175 1019.94 677.89 1020.48 677.473C1021.02 677.057 1021.45 676.521 1021.73 675.909L1035.4 646.337C1035.65 645.777 1035.77 645.173 1035.75 644.564C1035.74 643.956 1035.59 643.358 1035.32 642.811C1035.05 642.264 1034.66 641.78 1034.18 641.394C1033.7 641.007 1033.14 640.726 1032.54 640.57Z" fill="#E6641B" stroke="#2E4555" stroke-width="1.1133" stroke-linecap="round" stroke-linejoin="round"/>
<path d="M969.107 599.416C972.776 608.928 971.319 618.293 965.84 620.314C960.361 622.334 952.922 616.321 949.203 606.858C945.483 597.395 946.991 587.981 952.47 585.96C957.949 583.939 965.388 589.952 969.107 599.416Z" fill="#2E4555"/>
<path d="M1041.89 592.663C1039.98 602.52 1043.09 611.638 1048.87 612.673C1054.65 613.708 1060.89 606.512 1062.8 596.507C1064.71 586.502 1061.59 577.581 1055.81 576.496C1050.03 575.412 1043.8 582.707 1041.89 592.663Z" fill="#2E4555"/>
<path d="M1021.73 675.86C1021.73 675.86 986.046 723.373 953.525 675.564" stroke="#2E4555" stroke-width="1.1133" stroke-linecap="round" stroke-linejoin="round"/>
<path d="M1014.85 677.191C1014.85 677.191 1038.57 701.292 1063.6 687.787C1088.63 674.283 1073.65 653.286 1073.65 653.286" stroke="#2E4555" stroke-width="1.1133" stroke-linecap="round" stroke-linejoin="round"/>
<path d="M906.026 561.464C906.026 561.464 914.772 530.807 956.039 538.151" stroke="#2E4555" stroke-width="3.33991" stroke-linecap="round" stroke-linejoin="round"/>
<path d="M1031.08 533.272C1031.08 533.272 1062.35 514.888 1091.1 544.312" stroke="#2E4555" stroke-width="3.33991" stroke-linecap="round" stroke-linejoin="round"/>
<path d="M882.252 643.676L912.259 651.02" stroke="#2E4555" stroke-width="1.1133" stroke-miterlimit="10" stroke-linecap="round"/>
<path d="M908.489 662.06L882.252 666.939" stroke="#2E4555" stroke-width="1.1133" stroke-miterlimit="10" stroke-linecap="round"/>
<path d="M913.516 675.564L894.768 685.373" stroke="#2E4555" stroke-width="1.1133" stroke-miterlimit="10" stroke-linecap="round"/>
<path d="M1103.61 630.171L1129.9 624.01" stroke="#2E4555" stroke-width="1.1133" stroke-miterlimit="10" stroke-linecap="round"/>
<path d="M1108.64 642.443H1126.13" stroke="#2E4555" stroke-width="1.1133" stroke-miterlimit="10" stroke-linecap="round"/>
<path d="M1112.36 654.716L1136.13 660.827" stroke="#2E4555" stroke-width="1.1133" stroke-miterlimit="10" stroke-linecap="round"/>
</svg>
