<svg width="45" height="45" viewBox="0 0 45 45" fill="none" xmlns="http://www.w3.org/2000/svg">
<path d="M10.92 6.81L22.5 18.39L34.02 6.87C34.2745 6.59915 34.581 6.38248 34.9212 6.23299C35.2615 6.08349 35.6284 6.00424 36 6C36.7957 6 37.5587 6.31607 38.1213 6.87868C38.6839 7.44129 39 8.20435 39 9C39.007 9.36781 38.9388 9.73316 38.7995 10.0736C38.6602 10.4141 38.4528 10.7226 38.19 10.98L26.52 22.5L38.19 34.17C38.6844 34.6537 38.9744 35.3088 39 36C39 36.7956 38.6839 37.5587 38.1213 38.1213C37.5587 38.6839 36.7957 39 36 39C35.6177 39.0159 35.2362 38.952 34.8799 38.8126C34.5235 38.6732 34.2 38.4611 33.93 38.19L22.5 26.61L10.95 38.16C10.6965 38.4218 10.3937 38.6308 10.059 38.775C9.72432 38.9192 9.36439 38.9957 9 39C8.20435 39 7.44129 38.6839 6.87868 38.1213C6.31607 37.5587 6 36.7956 6 36C5.99301 35.6322 6.06125 35.2668 6.20053 34.9264C6.33982 34.5859 6.54722 34.2774 6.81 34.02L18.48 22.5L6.81 10.83C6.31555 10.3463 6.02562 9.69124 6 9C6 8.20435 6.31607 7.44129 6.87868 6.87868C7.44129 6.31607 8.20435 6 9 6C9.72 6.009 10.41 6.3 10.92 6.81Z" fill="white"/>
</svg>
