<svg width="50" height="50" viewBox="0 0 50 50" fill="none" xmlns="http://www.w3.org/2000/svg">
<path d="M50 43.0556C50 46.9444 46.9444 50 43.0556 50H6.94444C3.05556 50 0 46.9444 0 43.0556V6.94444C0 3.05556 3.05556 0 6.94444 0H43.0556C46.9444 0 50 3.05556 50 6.94444V43.0556Z" fill="#FF9800"/>
<path d="M29.0278 33.889C31.1111 33.4723 33.0556 32.639 34.7222 31.5279C36.1111 30.6946 36.5278 28.889 35.6945 27.5001C34.8611 26.1112 33.0556 25.6946 31.6667 26.5279C27.6389 29.0279 22.3611 29.0279 18.3333 26.5279C16.9445 25.6946 15.1389 26.1112 14.3056 27.5001C13.4722 28.889 13.8889 30.6946 15.2778 31.5279C17.0833 32.639 19.0278 33.4723 20.9722 33.889L15.4167 39.4446C14.3056 40.5557 14.3056 42.3612 15.4167 43.6112C15.9722 44.1668 16.6667 44.4446 17.5 44.4446C18.1945 44.4446 19.0278 44.1668 19.5833 43.6112L25 38.1946L30.4167 43.6112C31.5278 44.7223 33.3333 44.7223 34.5833 43.6112C35.6945 42.5001 35.6945 40.6946 34.5833 39.4446L29.0278 33.889ZM25 5.55566C19.5833 5.55566 15.2778 9.86122 15.2778 15.2779C15.2778 20.6946 19.5833 25.0001 25 25.0001C30.4167 25.0001 34.7222 20.6946 34.7222 15.2779C34.7222 9.86122 30.4167 5.55566 25 5.55566ZM25 19.4446C22.6389 19.4446 20.8333 17.639 20.8333 15.2779C20.8333 12.9168 22.6389 11.1112 25 11.1112C27.3611 11.1112 29.1667 12.9168 29.1667 15.2779C29.1667 17.639 27.3611 19.4446 25 19.4446Z" fill="white"/>
</svg>
