<svg width="26" height="26" viewBox="0 0 26 26" fill="none" xmlns="http://www.w3.org/2000/svg">
<path d="M13 25.5C11.2917 25.5 9.67708 25.1717 8.15625 24.515C6.63542 23.8583 5.30708 22.9625 4.17125 21.8275C3.03625 20.6925 2.14042 19.3646 1.48375 17.8438C0.827085 16.3229 0.499168 14.7083 0.500002 13C0.500002 11.2708 0.828335 9.65083 1.485 8.14C2.14167 6.62917 3.0375 5.30667 4.1725 4.1725C5.3075 3.03667 6.635 2.14083 8.155 1.485C9.675 0.829167 11.29 0.500833 13 0.5C14.7292 0.5 16.3492 0.828333 17.86 1.485C19.3708 2.14167 20.6933 3.0375 21.8275 4.1725C22.9633 5.3075 23.8592 6.63042 24.515 8.14125C25.1708 9.65208 25.4992 11.2717 25.5 13V14.8125C25.5 16.0417 25.0783 17.0888 24.235 17.9538C23.3917 18.8188 22.355 19.2508 21.125 19.25C20.375 19.25 19.6771 19.0833 19.0313 18.75C18.3854 18.4167 17.8542 17.9792 17.4375 17.4375C16.875 18 16.2133 18.4429 15.4525 18.7663C14.6917 19.0896 13.8742 19.2508 13 19.25C11.2708 19.25 9.79667 18.6404 8.5775 17.4212C7.35834 16.2021 6.74917 14.7283 6.75 13C6.75 11.2708 7.35959 9.79667 8.57875 8.5775C9.79792 7.35833 11.2717 6.74917 13 6.75C14.7292 6.75 16.2033 7.35958 17.4225 8.57875C18.6417 9.79792 19.2508 11.2717 19.25 13V14.8125C19.25 15.4167 19.4375 15.8904 19.8125 16.2337C20.1875 16.5771 20.625 16.7492 21.125 16.75C21.625 16.75 22.0625 16.5779 22.4375 16.2337C22.8125 15.8896 23 15.4158 23 14.8125V13C23 10.2708 22.0154 7.92167 20.0462 5.9525C18.0771 3.98333 15.7283 2.99917 13 3C10.2708 3 7.92167 3.98458 5.9525 5.95375C3.98334 7.92292 2.99917 10.2717 3 13C3 15.7292 3.98459 18.0783 5.95375 20.0475C7.92292 22.0167 10.2717 23.0008 13 23H18C18.3542 23 18.6513 23.12 18.8913 23.36C19.1313 23.6 19.2508 23.8967 19.25 24.25C19.25 24.6042 19.13 24.9012 18.89 25.1412C18.65 25.3812 18.3533 25.5008 18 25.5H13ZM13 16.75C14.0417 16.75 14.9271 16.3854 15.6563 15.6562C16.3854 14.9271 16.75 14.0417 16.75 13C16.75 11.9583 16.3854 11.0729 15.6563 10.3438C14.9271 9.61458 14.0417 9.25 13 9.25C11.9583 9.25 11.0729 9.61458 10.3438 10.3438C9.61458 11.0729 9.25 11.9583 9.25 13C9.25 14.0417 9.61458 14.9271 10.3438 15.6562C11.0729 16.3854 11.9583 16.75 13 16.75Z" fill="#5EBFC5"/>
</svg>
