<svg width="390" height="71" viewBox="0 0 390 71" fill="none" xmlns="http://www.w3.org/2000/svg">
<path d="M95.1677 40.7094H90.5068L89.0563 46.0105H85.0053L86.4558 40.7094H83.5883V37.068H87.4693L88.5829 33.014H84.7019V29.3727H89.5964L91.0833 24.0715H95.1343L93.6474 29.3727H98.3114L99.7952 24.0715H103.846L102.362 29.3727H105.263V33.014H101.346L100.232 37.068H104.147V40.7094H99.2217L97.7682 46.0105H93.7142L95.1677 40.7094ZM91.5264 37.068H96.1873L97.3009 33.014H92.6339L91.5264 37.068Z" fill="white"/>
<path d="M123.694 34.0245V34.6678L132.494 44.7603V46.0105H126.122L118.424 36.9072H116.23V46.0105H110.495V24.0654H116.233V32.1674H118.393L125.448 24.0654H131.387V25.3156L123.694 34.0245Z" fill="white"/>
<path d="M135.332 29.13H141.003V30.7504C141.665 30.0951 142.451 29.5783 143.314 29.2303C144.178 28.8823 145.103 28.7099 146.034 28.7234C150.388 28.7234 153.562 32.1675 153.562 37.5688C153.562 42.9701 150.398 46.4111 146.043 46.4111C145.114 46.4309 144.191 46.265 143.327 45.9232C142.463 45.5814 141.676 45.0705 141.012 44.4206V51.242H135.332V29.13ZM140.794 37.5688C140.794 39.7657 142.177 41.0827 144.304 41.0827C146.432 41.0827 147.815 39.7657 147.815 37.5688C147.815 35.3718 146.432 34.0579 144.304 34.0579C142.177 34.0579 140.809 35.3749 140.809 37.5688H140.794Z" fill="white"/>
<path d="M161.504 29.1301L165.218 38.9556H165.421L168.898 29.1301H174.333V30.2104L168.222 46.0775C166.905 49.4882 165.115 51.5698 159.14 51.5698V46.1685C160.423 46.1685 161.3 46.0987 161.871 45.8651L155.662 30.2104V29.1301H161.504Z" fill="white"/>
<path d="M177.268 29.1301H190.131V34.3979H182.942V46.0107H177.268V29.1301Z" fill="white"/>
<path d="M192.528 37.5688C192.528 32.1675 196.472 28.7234 201.846 28.7234C207.22 28.7234 211.165 32.1675 211.165 37.5688C211.165 42.9701 207.214 46.4111 201.846 46.4111C196.479 46.4111 192.528 42.9731 192.528 37.5688ZM198.266 37.5688C198.266 39.7657 199.686 41.0827 201.846 41.0827C204.007 41.0827 205.427 39.7657 205.427 37.5688C205.427 35.3719 204.01 34.0579 201.85 34.0579C199.689 34.0579 198.266 35.3749 198.266 37.5688Z" fill="white"/>
<path d="M238.002 37.3685V38.7856C236.721 43.0339 232.094 46.4142 226.186 46.4142C219.207 46.4142 214.066 41.9263 214.066 34.9046C214.066 27.8829 219.197 23.4253 226.186 23.4253C231.79 23.4253 236.485 26.2595 238.002 31.0539V32.471H232.06C231.22 30.1102 229.096 28.7598 226.186 28.7598C222.405 28.7598 219.907 31.0539 219.907 34.9046C219.907 38.7553 222.405 41.0827 226.186 41.0827C229.09 41.0827 231.25 39.7324 232.094 37.3685H238.002Z" fill="white"/>
<path d="M241.95 29.1301H249.839C254.767 29.1301 258.381 30.8871 258.381 33.9852C258.381 35.639 257.268 36.7162 255.847 37.3959V37.6994C257.234 38.2061 258.578 39.2864 258.578 40.9402C258.578 43.8775 255.407 46.0047 249.97 46.0047H241.95V29.1301ZM250.143 33.7546H247.609V36.0942H250.583C251.73 36.0942 252.403 35.6208 252.403 34.9472C252.415 34.1946 251.605 33.788 250.155 33.7546H250.143ZM250.783 39.0558H247.621V41.3862H250.222C251.809 41.3862 252.649 40.9796 252.649 40.2028C252.652 39.5292 251.945 39.0558 250.795 39.0558H250.783Z" fill="white"/>
<path d="M279.829 39.6627V40.7429C278.782 43.9503 275.237 46.4113 270.646 46.4113C265.278 46.4113 261.328 42.9702 261.328 37.5659C261.328 32.1615 265.272 28.7205 270.646 28.7205C275.441 28.7205 279.085 31.4515 279.829 35.8787V38.3063H267.102C267.372 40.1633 268.722 41.277 270.646 41.277C272.03 41.277 273.247 40.7702 273.887 39.6566L279.829 39.6627ZM267.439 35.3082H273.854C273.28 34.1278 272.233 33.4512 270.646 33.4512C269.15 33.4512 268.012 34.1278 267.439 35.3082Z" fill="white"/>
<path d="M292.792 46.0107H287.12V34.3979H281.989V29.1301H297.889V34.3979H292.792V46.0107Z" fill="white"/>
<path d="M307.882 39.696H306.668V46.0107H300.994V29.1301H306.668V35.4448H307.815L312.643 29.1301H318.281V29.9069L312.44 37.402L318.718 45.2339V46.0107H312.777L307.882 39.696Z" fill="white"/>
<path d="M338.503 46.0106H332.831V44.4235C332.166 45.0712 331.378 45.5805 330.515 45.9222C329.651 46.2638 328.729 46.431 327.8 46.4141C323.446 46.4141 320.272 42.9731 320.272 37.5687C320.272 32.1644 323.446 28.7233 327.8 28.7233C328.731 28.7129 329.655 28.8866 330.518 29.2345C331.381 29.5824 332.168 30.0975 332.831 30.7504V29.13H338.503V46.0106ZM333.041 37.5687C333.041 35.3748 331.654 34.0579 329.53 34.0579C327.406 34.0579 326.016 35.3748 326.016 37.5687C326.016 39.7626 327.403 41.0826 329.53 41.0826C331.657 41.0826 333.034 39.7657 333.034 37.5687H333.041Z" fill="white"/>
<path d="M368.11 28.4199C363.972 33.7118 360.754 39.6612 358.587 46.0196H352.849C355.011 39.9477 358.073 34.2349 361.931 29.0723H349.439V24.0654H368.11V28.4199Z" fill="white"/>
<path d="M389.314 41.1493H386.477V46.0044H380.739V41.1493H368.923V36.8283L381.425 24.0654H386.489V36.4884H390L389.314 41.1493ZM380.739 36.4884V30.987L374.898 36.4884H380.739Z" fill="white"/>
<path d="M64.7777 34.9257C62.7338 34.5544 60.6714 34.2931 58.5996 34.1428C53.4435 33.7742 48.2613 34.0884 43.1876 35.0775C45.9186 38.1119 48.1247 40.5394 49.5599 42.1629C52.0391 44.9576 58.5207 52.307 60.9088 54.6921C63.0329 56.8162 64.013 57.854 64.4682 58.3334C67.184 61.1281 68.6891 62.6757 69.6419 62.3085C70.5947 61.9414 70.6463 59.6139 70.5826 58.1696C70.443 55.126 69.6631 48.2591 64.7777 34.9257Z" fill="white"/>
<path d="M35.2951 35.2928C36.7955 32.2261 38.6831 29.3645 40.9119 26.7782C44.972 22.0779 47.2569 21.7046 47.8911 21.6197C49.9242 21.3708 51.6629 22.0961 52.7189 22.6726C54.3999 23.7623 55.9947 24.9797 57.489 26.3139C60.3146 28.8239 62.7669 31.7248 64.7717 34.9287C54.9113 33.1439 44.7574 33.9298 35.2891 37.2106L35.2951 35.2928Z" fill="white"/>
<path d="M34.9431 5.80122C34.5095 8.22687 34.2297 10.6775 34.1056 13.1385C33.8657 18.03 34.2316 22.9324 35.195 27.7342C37.4708 25.5089 39.8043 23.2735 42.1954 21.028C46.3991 17.0711 50.5705 13.2933 54.7094 9.69441C56.8336 7.5703 57.8713 6.58714 58.3356 6.13501C61.1303 3.40401 62.6779 1.91107 62.3138 0.958252C61.9496 0.00543743 59.6161 -0.0431136 58.1748 0.0175753C55.1434 0.135918 48.2764 0.91577 34.9431 5.80122Z" fill="white"/>
<path d="M35.3285 35.2717C32.2617 33.7714 29.4001 31.8837 26.8138 29.655C22.1135 25.5949 21.7403 23.31 21.6553 22.6758C21.4938 20.996 21.862 19.3079 22.7082 17.848C23.797 16.1662 25.0144 14.5714 26.3496 13.0778C28.8595 10.2523 31.7605 7.79991 34.9643 5.79517C33.1754 15.6553 33.9614 25.8103 37.2462 35.2778L35.3285 35.2717Z" fill="white"/>
<path d="M35.6834 64.7666C36.1352 62.2542 36.4231 59.7151 36.5452 57.1653C36.7652 52.4784 36.4229 47.782 35.5256 43.1765C32.4912 45.9075 30.0636 48.1135 28.4432 49.5488C25.6333 52.0401 18.2991 58.5095 15.914 60.8946C13.7899 63.0187 12.7521 64.0019 12.2727 64.454C9.47798 67.1698 7.93042 68.678 8.29455 69.6126C8.67689 70.6079 10.9922 70.617 12.4366 70.5563C15.471 70.4319 22.347 69.649 35.6834 64.7666Z" fill="white"/>
<path d="M5.81245 35.654C8.03224 36.0558 10.2734 36.3294 12.5246 36.4733C17.502 36.7828 22.4985 36.4565 27.3934 35.5023C25.2794 33.1455 23.1553 30.7837 21.0211 28.4168C17.2462 24.2131 13.4744 20.0367 9.70564 15.8876C7.58153 13.7635 6.59837 12.7257 6.14624 12.2615C3.41524 9.46675 1.92229 7.91919 0.96948 8.28332C0.0166655 8.64745 -0.0440233 10.9809 0.0166655 12.4253C0.147146 15.4598 0.926998 22.3206 5.81245 35.654Z" fill="white"/>
<path d="M35.295 35.2869C33.7947 38.3537 31.907 41.2153 29.6783 43.8015C25.6182 48.5019 23.3333 48.8751 22.6991 48.9601C20.666 49.2089 18.9273 48.4837 17.8713 47.9071C16.191 46.8164 14.5963 45.5991 13.1011 44.2658C10.2747 41.7555 7.82229 38.8535 5.81848 35.648C11.1383 36.6118 16.5663 36.8314 21.9465 36.3004C26.4967 35.8506 30.978 34.8668 35.2981 33.3691L35.295 35.2869Z" fill="white"/>
<path d="M35.3102 35.2838C38.377 36.7841 41.2386 38.6718 43.8249 40.9005C48.5252 44.9606 48.8985 47.2456 48.9834 47.8798C49.2322 49.9128 48.507 51.6516 47.9305 52.7076C46.8397 54.3879 45.6224 55.9826 44.2891 57.4777C41.7788 60.3041 38.8768 62.7566 35.6713 64.7604C36.6352 59.4406 36.8547 54.0126 36.3237 48.6323C35.8739 44.0822 34.8901 39.6008 33.3925 35.2808L35.3102 35.2838Z" fill="white"/>
<path d="M35.295 43.1823C39.6557 43.1823 43.1906 39.6474 43.1906 35.2867C43.1906 30.9261 39.6557 27.3911 35.295 27.3911C30.9344 27.3911 27.3994 30.9261 27.3994 35.2867C27.3994 39.6474 30.9344 43.1823 35.295 43.1823Z" fill="white"/>
</svg>
