<svg width="390" height="71" viewBox="0 0 390 71" fill="none" xmlns="http://www.w3.org/2000/svg">
<path d="M95.1676 40.7091H90.5067L89.0562 46.0103H85.0052L86.4557 40.7091H83.5881V37.0678H87.4692L88.5828 33.0138H84.7018V29.3725H89.5963L91.0832 24.0713H95.1342L93.6473 29.3725H98.3112L99.7951 24.0713H103.846L102.362 29.3725H105.263V33.0138H101.346L100.232 37.0678H104.146V40.7091H99.2216L97.7681 46.0103H93.7141L95.1676 40.7091ZM91.5262 37.0678H96.1871L97.3008 33.0138H92.6338L91.5262 37.0678Z" fill="#E06A1B"/>
<path d="M123.694 34.0245V34.6678L132.494 44.7603V46.0105H126.122L118.424 36.9072H116.23V46.0105H110.495V24.0654H116.233V32.1674H118.393L125.448 24.0654H131.387V25.3156L123.694 34.0245Z" fill="#E06A1B"/>
<path d="M135.332 29.13H141.003V30.7504C141.665 30.0951 142.451 29.5783 143.314 29.2303C144.178 28.8823 145.103 28.7099 146.034 28.7234C150.388 28.7234 153.562 32.1675 153.562 37.5688C153.562 42.9701 150.398 46.4111 146.043 46.4111C145.114 46.4309 144.191 46.265 143.327 45.9232C142.463 45.5814 141.676 45.0705 141.012 44.4206V51.242H135.332V29.13ZM140.794 37.5688C140.794 39.7657 142.177 41.0827 144.304 41.0827C146.432 41.0827 147.815 39.7657 147.815 37.5688C147.815 35.3718 146.432 34.0579 144.304 34.0579C142.177 34.0579 140.809 35.3749 140.809 37.5688H140.794Z" fill="#E06A1B"/>
<path d="M161.504 29.1299L165.218 38.9554H165.421L168.898 29.1299H174.333V30.2101L168.222 46.0772C166.905 49.4879 165.115 51.5696 159.14 51.5696V46.1683C160.423 46.1683 161.3 46.0985 161.871 45.8648L155.662 30.2101V29.1299H161.504Z" fill="#E06A1B"/>
<path d="M177.268 29.1299H190.131V34.3977H182.942V46.0105H177.268V29.1299Z" fill="#E06A1B"/>
<path d="M192.528 37.569C192.528 32.1677 196.472 28.7236 201.846 28.7236C207.22 28.7236 211.165 32.1677 211.165 37.569C211.165 42.9703 207.214 46.4114 201.846 46.4114C196.479 46.4114 192.528 42.9734 192.528 37.569ZM198.266 37.569C198.266 39.766 199.686 41.0829 201.846 41.0829C204.007 41.0829 205.427 39.766 205.427 37.569C205.427 35.3721 204.01 34.0582 201.85 34.0582C199.689 34.0582 198.266 35.3751 198.266 37.569Z" fill="#E06A1B"/>
<path d="M238.002 37.3681V38.7851C236.721 43.0334 232.094 46.4137 226.186 46.4137C219.207 46.4137 214.066 41.9258 214.066 34.9041C214.066 27.8824 219.197 23.4248 226.186 23.4248C231.79 23.4248 236.485 26.259 238.002 31.0534V32.4705H232.06C231.22 30.1097 229.096 28.7594 226.186 28.7594C222.405 28.7594 219.907 31.0534 219.907 34.9041C219.907 38.7548 222.405 41.0822 226.186 41.0822C229.09 41.0822 231.25 39.7319 232.094 37.3681H238.002Z" fill="#E06A1B"/>
<path d="M241.95 29.1299H249.839C254.767 29.1299 258.381 30.8868 258.381 33.985C258.381 35.6388 257.268 36.716 255.847 37.3957V37.6991C257.234 38.2059 258.578 39.2862 258.578 40.9399C258.578 43.8773 255.407 46.0044 249.97 46.0044H241.95V29.1299ZM250.143 33.7544H247.609V36.0939H250.583C251.73 36.0939 252.403 35.6206 252.403 34.9469C252.415 34.1944 251.605 33.7877 250.155 33.7544H250.143ZM250.783 39.0555H247.621V41.386H250.222C251.809 41.386 252.649 40.9794 252.649 40.2026C252.652 39.5289 251.945 39.0555 250.795 39.0555H250.783Z" fill="#E06A1B"/>
<path d="M279.829 39.6629V40.7432C278.782 43.9506 275.238 46.4115 270.646 46.4115C265.278 46.4115 261.328 42.9704 261.328 37.5661C261.328 32.1618 265.272 28.7207 270.646 28.7207C275.441 28.7207 279.085 31.4517 279.829 35.879V38.3065H267.102C267.372 40.1636 268.723 41.2772 270.646 41.2772C272.03 41.2772 273.247 40.7705 273.887 39.6568L279.829 39.6629ZM267.439 35.3085H273.854C273.28 34.1281 272.233 33.4514 270.646 33.4514C269.15 33.4514 268.013 34.1281 267.439 35.3085Z" fill="#E06A1B"/>
<path d="M292.792 46.0105H287.12V34.3977H281.989V29.1299H297.889V34.3977H292.792V46.0105Z" fill="#E06A1B"/>
<path d="M307.882 39.6958H306.668V46.0105H300.994V29.1299H306.668V35.4446H307.815L312.643 29.1299H318.281V29.9067L312.44 37.4018L318.718 45.2337V46.0105H312.777L307.882 39.6958Z" fill="#E06A1B"/>
<path d="M338.502 46.0103H332.831V44.4233C332.165 45.0709 331.378 45.5803 330.515 45.9219C329.651 46.2636 328.728 46.4308 327.8 46.4139C323.446 46.4139 320.271 42.9728 320.271 37.5685C320.271 32.1642 323.446 28.7231 327.8 28.7231C328.731 28.7127 329.654 28.8864 330.518 29.2343C331.381 29.5821 332.167 30.0973 332.831 30.7501V29.1297H338.502V46.0103ZM333.04 37.5685C333.04 35.3746 331.654 34.0576 329.53 34.0576C327.405 34.0576 326.016 35.3746 326.016 37.5685C326.016 39.7624 327.402 41.0824 329.53 41.0824C331.657 41.0824 333.034 39.7654 333.034 37.5685H333.04Z" fill="#E06A1B"/>
<path d="M368.11 28.4199C363.972 33.7118 360.754 39.6612 358.587 46.0196H352.849C355.011 39.9477 358.073 34.2349 361.931 29.0723H349.439V24.0654H368.11V28.4199Z" fill="#3780C3"/>
<path d="M389.314 41.1493H386.477V46.0044H380.739V41.1493H368.923V36.8283L381.425 24.0654H386.489V36.4884H390L389.314 41.1493ZM380.739 36.4884V30.987L374.898 36.4884H380.739Z" fill="#3780C3"/>
<path d="M64.7778 34.9255C62.7339 34.5542 60.6716 34.2929 58.5997 34.1426C53.4436 33.7739 48.2615 34.0882 43.1877 35.0772C45.9187 38.1117 48.1248 40.5392 49.5601 42.1626C52.0392 44.9574 58.5208 52.3068 60.9089 54.6918C63.033 56.8159 64.0131 57.8537 64.4683 58.3332C67.1841 61.1279 68.6892 62.6755 69.642 62.3083C70.5948 61.9411 70.6464 59.6137 70.5827 58.1693C70.4431 55.1258 69.6632 48.2588 64.7778 34.9255Z" fill="url(#paint0_linear_461_149)"/>
<path d="M35.2951 35.2928C36.7955 32.2261 38.6831 29.3645 40.9119 26.7782C44.972 22.0779 47.2569 21.7046 47.8911 21.6197C49.9242 21.3708 51.6629 22.0961 52.7189 22.6726C54.3999 23.7623 55.9947 24.9797 57.489 26.3139C60.3146 28.8239 62.7669 31.7248 64.7717 34.9287C54.9113 33.1439 44.7574 33.9298 35.2891 37.2106L35.2951 35.2928Z" fill="#F18919"/>
<path d="M34.9431 5.80122C34.5095 8.22687 34.2297 10.6775 34.1056 13.1385C33.8657 18.03 34.2316 22.9324 35.195 27.7342C37.4708 25.5089 39.8043 23.2735 42.1954 21.028C46.3991 17.0711 50.5705 13.2933 54.7094 9.69441C56.8336 7.5703 57.8713 6.58714 58.3356 6.13501C61.1303 3.40401 62.6779 1.91107 62.3138 0.958252C61.9496 0.00543743 59.6161 -0.0431136 58.1748 0.0175753C55.1434 0.135918 48.2764 0.91577 34.9431 5.80122Z" fill="url(#paint1_linear_461_149)"/>
<path d="M35.3285 35.2715C32.2617 33.7711 29.4001 31.8835 26.8138 29.6547C22.1135 25.5946 21.7403 23.3097 21.6553 22.6755C21.4938 20.9958 21.862 19.3076 22.7082 17.8477C23.797 16.166 25.0144 14.5712 26.3496 13.0776C28.8595 10.252 31.7605 7.79967 34.9643 5.79492C33.1754 15.6551 33.9614 25.8101 37.2462 35.2776L35.3285 35.2715Z" fill="#5EC0C6"/>
<path d="M35.6834 64.7668C36.1352 62.2544 36.4231 59.7153 36.5452 57.1655C36.7652 52.4786 36.4229 47.7822 35.5256 43.1768C32.4912 45.9078 30.0636 48.1138 28.4432 49.5491C25.6333 52.0404 18.2991 58.5098 15.914 60.8949C13.7899 63.019 12.7521 64.0021 12.2727 64.4543C9.47798 67.1701 7.93042 68.6782 8.29455 69.6128C8.67689 70.6081 10.9922 70.6172 12.4366 70.5565C15.471 70.4321 22.347 69.6492 35.6834 64.7668Z" fill="url(#paint2_linear_461_149)"/>
<path d="M5.81245 35.6537C8.03224 36.0556 10.2734 36.3291 12.5246 36.473C17.502 36.7825 22.4985 36.4562 27.3934 35.502C25.2794 33.1453 23.1553 30.7835 21.0211 28.4166C17.2462 24.2129 13.4744 20.0365 9.70564 15.8874C7.58153 13.7633 6.59837 12.7255 6.14624 12.2612C3.41524 9.46651 1.92229 7.91894 0.96948 8.28308C0.0166655 8.64721 -0.0440233 10.9807 0.0166655 12.4251C0.147146 15.4595 0.926998 22.3204 5.81245 35.6537Z" fill="url(#paint3_linear_461_149)"/>
<path d="M35.295 35.2869C33.7947 38.3537 31.907 41.2153 29.6783 43.8015C25.6182 48.5019 23.3333 48.8751 22.6991 48.9601C20.666 49.2089 18.9273 48.4837 17.8713 47.9071C16.191 46.8164 14.5963 45.5991 13.1011 44.2658C10.2747 41.7555 7.82229 38.8535 5.81848 35.648C11.1383 36.6118 16.5663 36.8314 21.9465 36.3004C26.4967 35.8506 30.978 34.8668 35.2981 33.3691L35.295 35.2869Z" fill="#FCE155"/>
<path d="M35.3103 35.2843C38.3771 36.7846 41.2387 38.6723 43.825 40.901C48.5253 44.9611 48.8986 47.2461 48.9835 47.8802C49.2324 49.9133 48.5071 51.6521 47.9306 52.708C46.8399 54.3884 45.6226 55.983 44.2893 57.4782C41.779 60.3046 38.8769 62.757 35.6714 64.7608C36.6353 59.441 36.8548 54.0131 36.3238 48.6328C35.8741 44.0827 34.8902 39.6013 33.3926 35.2812L35.3103 35.2843Z" fill="#3780C3"/>
<path d="M35.295 43.1828C39.6557 43.1828 43.1906 39.6478 43.1906 35.2872C43.1906 30.9266 39.6557 27.3916 35.295 27.3916C30.9344 27.3916 27.3994 30.9266 27.3994 35.2872C27.3994 39.6478 30.9344 43.1828 35.295 43.1828Z" fill="#4364AD"/>
<defs>
<linearGradient id="paint0_linear_461_149" x1="56.8913" y1="35.7842" x2="56.8913" y2="64.1411" gradientUnits="userSpaceOnUse">
<stop stop-color="#E7651C"/>
<stop offset="0.21" stop-color="#E96C1B"/>
<stop offset="0.51" stop-color="#EF811A"/>
<stop offset="0.6" stop-color="#F18919"/>
<stop offset="1" stop-color="#F18919"/>
</linearGradient>
<linearGradient id="paint1_linear_461_149" x1="35.9293" y1="13.8577" x2="64.2649" y2="13.8577" gradientUnits="userSpaceOnUse">
<stop stop-color="#00959B"/>
<stop offset="0.14" stop-color="#169FA5"/>
<stop offset="0.42" stop-color="#4DB8BE"/>
<stop offset="0.5" stop-color="#5EC0C6"/>
<stop offset="1" stop-color="#5EC0C6"/>
</linearGradient>
<linearGradient id="paint2_linear_461_149" x1="32.3486" y1="56.8803" x2="3.99475" y2="56.8803" gradientUnits="userSpaceOnUse">
<stop stop-color="#2E64A2"/>
<stop offset="0.46" stop-color="#3780C3"/>
<stop offset="1" stop-color="#3780C3"/>
</linearGradient>
<linearGradient id="paint3_linear_461_149" x1="13.699" y1="33.1716" x2="13.699" y2="4.81471" gradientUnits="userSpaceOnUse">
<stop offset="0.08" stop-color="#FDC300"/>
<stop offset="0.5" stop-color="#FCD73A"/>
<stop offset="0.68" stop-color="#FCE155"/>
<stop offset="1" stop-color="#FCE155"/>
</linearGradient>
</defs>
</svg>
