<svg width="55" height="55" viewBox="0 0 55 55" fill="none" xmlns="http://www.w3.org/2000/svg">
<path d="M27.5 0C20.2082 0 13.2086 2.8991 8.05664 8.05449C2.89937 13.2119 0.00142858 20.2064 0 27.5C0 34.7905 2.90039 41.7901 8.05664 46.9455C13.2086 52.1009 20.2082 55 27.5 55C34.7918 55 41.7914 52.1009 46.9434 46.9455C52.0996 41.7901 55 34.7905 55 27.5C55 20.2095 52.0996 13.2099 46.9434 8.05449C41.7914 2.8991 34.7918 0 27.5 0Z" fill="url(#paint0_linear_768_1346)"/>
<path d="M12.4481 27.2096C20.466 23.7171 25.8113 21.4144 28.484 20.3019C36.1238 17.1253 37.7094 16.5735 38.7449 16.5549C38.9727 16.5512 39.4797 16.6075 39.8106 16.875C40.0856 17.1006 40.1629 17.4056 40.2016 17.6198C40.2359 17.8338 40.2832 18.3215 40.2445 18.7022C39.832 23.0507 38.0402 33.6029 37.1293 38.4734C36.7469 40.5342 35.9863 41.2251 35.2516 41.2926C33.6531 41.4396 32.4414 40.2373 30.8945 39.2237C28.4754 37.6368 27.109 36.6494 24.7586 35.1012C22.043 33.312 23.8047 32.3285 25.3516 30.7214C25.7555 30.3008 32.7938 23.9006 32.927 23.3201C32.9441 23.2474 32.9613 22.9767 32.7981 22.8341C32.6391 22.691 32.4027 22.74 32.2309 22.7787C31.9859 22.8337 28.1231 25.3894 20.6293 30.4456C19.5336 31.1992 18.541 31.5666 17.6473 31.5473C16.6676 31.5262 14.777 30.9921 13.3719 30.5358C11.6531 29.9759 10.2824 29.6799 10.4027 28.729C10.4629 28.234 11.1461 27.7274 12.4481 27.2096Z" fill="white"/>
<defs>
<linearGradient id="paint0_linear_768_1346" x1="2750" y1="0" x2="2750" y2="5500" gradientUnits="userSpaceOnUse">
<stop stop-color="#2AABEE"/>
<stop offset="1" stop-color="#229ED9"/>
</linearGradient>
</defs>
</svg>
